<?xml version="1.0" encoding="UTF-8" standalone="no"?>
<!DOCTYPE svg PUBLIC "-//W3C//DTD SVG 1.1//EN"
 "http://www.w3.org/Graphics/SVG/1.1/DTD/svg11.dtd">
<!-- Generated by graphviz version 12.0.0 (20240803.0821)
 -->
<!-- Title: ImmunopipeCD3 Pages: 1 -->
<svg width="337pt" height="591pt"
 viewBox="0.00 0.00 337.38 590.50" xmlns="http://www.w3.org/2000/svg" xmlns:xlink="http://www.w3.org/1999/xlink">
<g id="graph0" class="graph" transform="scale(1 1) rotate(0) translate(4 586.5)">
<title>ImmunopipeCD3</title>
<polygon fill="white" stroke="none" points="-4,4 -4,-586.5 333.38,-586.5 333.38,4 -4,4"/>
<text text-anchor="middle" x="164.69" y="-565.2" font-family="Helvetica,sans-Serif" font-size="14.00">ImmunopipeCD3</text>
<text text-anchor="middle" x="164.69" y="-547.95" font-family="Helvetica,sans-Serif" font-size="14.00"> </text>
<!-- SampleInfo -->
<g id="node1" class="node">
<title>SampleInfo</title>
<g id="a_node1"><a xlink:title="List sample information and perform statistics">
<polygon fill="none" stroke="black" points="174.88,-540 99.09,-522 174.87,-504 250.66,-522 174.88,-540"/>
<text text-anchor="middle" x="174.88" y="-517.73" font-family="Helvetica,sans-Serif" font-size="12.00">SampleInfo</text>
</a>
</g>
</g>
<!-- SeuratPreparing -->
<g id="node7" class="node">
<title>SeuratPreparing</title>
<g id="a_node7"><a xlink:title="Load, prepare and apply QC to data, using `Seurat`">
<path fill="none" stroke="black" d="M177.25,-468C177.25,-468 88.5,-468 88.5,-468 82.5,-468 76.5,-462 76.5,-456 76.5,-456 76.5,-444 76.5,-444 76.5,-438 82.5,-432 88.5,-432 88.5,-432 177.25,-432 177.25,-432 183.25,-432 189.25,-438 189.25,-444 189.25,-444 189.25,-456 189.25,-456 189.25,-462 183.25,-468 177.25,-468"/>
<text text-anchor="middle" x="132.88" y="-445.73" font-family="Helvetica,sans-Serif" font-size="12.00">SeuratPreparing</text>
</a>
</g>
</g>
<!-- SampleInfo&#45;&gt;SeuratPreparing -->
<g id="edge4" class="edge">
<title>SampleInfo&#45;&gt;SeuratPreparing</title>
<path fill="none" stroke="black" d="M165.76,-505.81C160.56,-497.14 153.91,-486.05 147.95,-476.12"/>
<polygon fill="black" stroke="black" points="150.45,-474.84 143.93,-469.42 145.64,-477.73 150.45,-474.84"/>
</g>
<!-- ImmunarchLoading -->
<g id="node10" class="node">
<title>ImmunarchLoading</title>
<g id="a_node10"><a xlink:title="Immuarch &#45; Loading data">
<path fill="none" stroke="black" d="M314,-396C314,-396 205.75,-396 205.75,-396 199.75,-396 193.75,-390 193.75,-384 193.75,-384 193.75,-372 193.75,-372 193.75,-366 199.75,-360 205.75,-360 205.75,-360 314,-360 314,-360 320,-360 326,-366 326,-372 326,-372 326,-384 326,-384 326,-390 320,-396 314,-396"/>
<text text-anchor="middle" x="259.88" y="-373.73" font-family="Helvetica,sans-Serif" font-size="12.00">ImmunarchLoading</text>
</a>
</g>
</g>
<!-- SampleInfo&#45;&gt;ImmunarchLoading -->
<g id="edge6" class="edge">
<title>SampleInfo&#45;&gt;ImmunarchLoading</title>
<path fill="none" stroke="black" d="M183.97,-505.8C198.53,-481.48 227.23,-433.53 244.87,-404.07"/>
<polygon fill="black" stroke="black" points="247.04,-405.89 248.75,-397.59 242.24,-403.01 247.04,-405.89"/>
</g>
<!-- SeuratSubClustering -->
<g id="node2" class="node">
<title>SeuratSubClustering</title>
<g id="a_node2"><a xlink:title="Sub&#45;cluster the selected T cells.">
<path fill="none" stroke="black" d="M164,-180C164,-180 49.75,-180 49.75,-180 43.75,-180 37.75,-174 37.75,-168 37.75,-168 37.75,-156 37.75,-156 37.75,-150 43.75,-144 49.75,-144 49.75,-144 164,-144 164,-144 170,-144 176,-150 176,-156 176,-156 176,-168 176,-168 176,-174 170,-180 164,-180"/>
<text text-anchor="middle" x="106.88" y="-157.72" font-family="Helvetica,sans-Serif" font-size="12.00">SeuratSubClustering</text>
</a>
</g>
</g>
<!-- ClusterMarkers -->
<g id="node8" class="node">
<title>ClusterMarkers</title>
<g id="a_node8"><a xlink:title="Markers for clusters of all or selected T cells.">
<polygon fill="none" stroke="black" points="120.25,-108 13.5,-108 13.5,-72 120.25,-72 120.25,-108"/>
<text text-anchor="middle" x="66.88" y="-85.72" font-family="Helvetica,sans-Serif" font-size="12.00">ClusterMarkers</text>
</a>
</g>
</g>
<!-- SeuratSubClustering&#45;&gt;ClusterMarkers -->
<g id="edge5" class="edge">
<title>SeuratSubClustering&#45;&gt;ClusterMarkers</title>
<path fill="none" stroke="black" d="M96.99,-143.7C92.24,-135.39 86.46,-125.28 81.24,-116.14"/>
<polygon fill="black" stroke="black" points="83.8,-114.98 77.4,-109.42 78.94,-117.75 83.8,-114.98"/>
</g>
<!-- IntegratingTCR -->
<g id="node12" class="node">
<title>IntegratingTCR</title>
<g id="a_node12"><a xlink:title="Attach TCR clone information as meta columns to Seurat object">
<path fill="none" stroke="black" d="M231.5,-108C231.5,-108 150.25,-108 150.25,-108 144.25,-108 138.25,-102 138.25,-96 138.25,-96 138.25,-84 138.25,-84 138.25,-78 144.25,-72 150.25,-72 150.25,-72 231.5,-72 231.5,-72 237.5,-72 243.5,-78 243.5,-84 243.5,-84 243.5,-96 243.5,-96 243.5,-102 237.5,-108 231.5,-108"/>
<text text-anchor="middle" x="190.88" y="-85.72" font-family="Helvetica,sans-Serif" font-size="12.00">IntegratingTCR</text>
</a>
</g>
</g>
<!-- SeuratSubClustering&#45;&gt;IntegratingTCR -->
<g id="edge10" class="edge">
<title>SeuratSubClustering&#45;&gt;IntegratingTCR</title>
<path fill="none" stroke="black" d="M127.64,-143.7C138.24,-134.86 151.29,-123.99 162.78,-114.41"/>
<polygon fill="black" stroke="black" points="164.54,-116.59 168.9,-109.32 160.96,-112.29 164.54,-116.59"/>
</g>
<!-- RadarPlots -->
<g id="node3" class="node">
<title>RadarPlots</title>
<g id="a_node3"><a xlink:title="Radar plots for cell proportion in different clusters.">
<polygon fill="none" stroke="black" points="226.12,-36 145.62,-36 145.62,0 226.12,0 226.12,-36"/>
<text text-anchor="middle" x="185.88" y="-13.72" font-family="Helvetica,sans-Serif" font-size="12.00">RadarPlots</text>
</a>
</g>
</g>
<!-- SeuratClustering -->
<g id="node4" class="node">
<title>SeuratClustering</title>
<g id="a_node4"><a xlink:title="Cluster all T cells or selected T cells selected by `TCellSelection`.">
<path fill="none" stroke="black" d="M152.75,-252C152.75,-252 61,-252 61,-252 55,-252 49,-246 49,-240 49,-240 49,-228 49,-228 49,-222 55,-216 61,-216 61,-216 152.75,-216 152.75,-216 158.75,-216 164.75,-222 164.75,-228 164.75,-228 164.75,-240 164.75,-240 164.75,-246 158.75,-252 152.75,-252"/>
<text text-anchor="middle" x="106.88" y="-229.72" font-family="Helvetica,sans-Serif" font-size="12.00">SeuratClustering</text>
</a>
</g>
</g>
<!-- SeuratClustering&#45;&gt;SeuratSubClustering -->
<g id="edge2" class="edge">
<title>SeuratClustering&#45;&gt;SeuratSubClustering</title>
<path fill="none" stroke="black" d="M106.88,-215.7C106.88,-207.81 106.88,-198.3 106.88,-189.55"/>
<polygon fill="black" stroke="black" points="109.68,-189.62 106.88,-181.62 104.08,-189.62 109.68,-189.62"/>
</g>
<!-- SeuratClusteringOfAllCells -->
<g id="node5" class="node">
<title>SeuratClusteringOfAllCells</title>
<g id="a_node5"><a xlink:title="Cluster all cells, including T cells and non&#45;T cells using Seurat">
<path fill="none" stroke="black" d="M163.88,-396C163.88,-396 15.88,-396 15.88,-396 9.88,-396 3.88,-390 3.88,-384 3.88,-384 3.88,-372 3.88,-372 3.88,-366 9.88,-360 15.88,-360 15.88,-360 163.88,-360 163.88,-360 169.88,-360 175.88,-366 175.88,-372 175.88,-372 175.88,-384 175.88,-384 175.88,-390 169.88,-396 163.88,-396"/>
<text text-anchor="middle" x="89.88" y="-373.73" font-family="Helvetica,sans-Serif" font-size="12.00">SeuratClusteringOfAllCells</text>
</a>
</g>
</g>
<!-- TCellSelection -->
<g id="node6" class="node">
<title>TCellSelection</title>
<path fill="none" stroke="black" d="M144.5,-324C144.5,-324 69.25,-324 69.25,-324 63.25,-324 57.25,-318 57.25,-312 57.25,-312 57.25,-300 57.25,-300 57.25,-294 63.25,-288 69.25,-288 69.25,-288 144.5,-288 144.5,-288 150.5,-288 156.5,-294 156.5,-300 156.5,-300 156.5,-312 156.5,-312 156.5,-318 150.5,-324 144.5,-324"/>
<text text-anchor="middle" x="106.88" y="-301.73" font-family="Helvetica,sans-Serif" font-size="12.00">TCellSelection</text>
</g>
<!-- SeuratClusteringOfAllCells&#45;&gt;TCellSelection -->
<g id="edge11" class="edge">
<title>SeuratClusteringOfAllCells&#45;&gt;TCellSelection</title>
<path fill="none" stroke="black" d="M94.08,-359.7C96.01,-351.73 98.35,-342.1 100.5,-333.26"/>
<polygon fill="black" stroke="black" points="103.2,-334.01 102.36,-325.58 97.75,-332.69 103.2,-334.01"/>
</g>
<!-- TCellSelection&#45;&gt;SeuratClustering -->
<g id="edge14" class="edge">
<title>TCellSelection&#45;&gt;SeuratClustering</title>
<path fill="none" stroke="black" d="M106.88,-287.7C106.88,-279.81 106.88,-270.3 106.88,-261.55"/>
<polygon fill="black" stroke="black" points="109.68,-261.62 106.88,-253.62 104.08,-261.62 109.68,-261.62"/>
</g>
<!-- SeuratPreparing&#45;&gt;SeuratClusteringOfAllCells -->
<g id="edge1" class="edge">
<title>SeuratPreparing&#45;&gt;SeuratClusteringOfAllCells</title>
<path fill="none" stroke="black" d="M122.25,-431.7C117.14,-423.39 110.93,-413.28 105.32,-404.14"/>
<polygon fill="black" stroke="black" points="107.75,-402.75 101.17,-397.39 102.98,-405.68 107.75,-402.75"/>
</g>
<!-- Immunarch -->
<g id="node9" class="node">
<title>Immunarch</title>
<g id="a_node9"><a xlink:title="Exploration of Single&#45;cell and Bulk T&#45;cell/Antibody Immune Repertoires">
<polygon fill="none" stroke="black" points="329.38,-36 244.38,-36 244.38,0 329.38,0 329.38,-36"/>
<text text-anchor="middle" x="286.88" y="-13.72" font-family="Helvetica,sans-Serif" font-size="12.00">Immunarch</text>
</a>
</g>
</g>
<!-- ImmunarchLoading&#45;&gt;TCellSelection -->
<g id="edge13" class="edge">
<title>ImmunarchLoading&#45;&gt;TCellSelection</title>
<path fill="none" stroke="black" d="M221.66,-359.52C200.95,-350.04 175.21,-338.26 153.35,-328.26"/>
<polygon fill="black" stroke="black" points="154.68,-325.79 146.24,-325.01 152.35,-330.89 154.68,-325.79"/>
</g>
<!-- ImmunarchLoading&#45;&gt;Immunarch -->
<g id="edge9" class="edge">
<title>ImmunarchLoading&#45;&gt;Immunarch</title>
<path fill="none" stroke="black" d="M264.33,-359.65C270.76,-333.02 281.88,-280.4 281.88,-235 281.88,-235 281.88,-235 281.88,-161 281.88,-120.84 283.9,-74.33 285.37,-45.79"/>
<polygon fill="black" stroke="black" points="288.16,-46.13 285.78,-37.99 282.56,-45.83 288.16,-46.13"/>
</g>
<!-- ImmunarchLoading&#45;&gt;IntegratingTCR -->
<g id="edge7" class="edge">
<title>ImmunarchLoading&#45;&gt;IntegratingTCR</title>
<path fill="none" stroke="black" d="M255.66,-359.54C243.99,-311.16 211.18,-175.15 197.25,-117.43"/>
<polygon fill="black" stroke="black" points="199.99,-116.82 195.39,-109.7 194.54,-118.14 199.99,-116.82"/>
</g>
<!-- SeuratClusterStats -->
<g id="node11" class="node">
<title>SeuratClusterStats</title>
<polygon fill="none" stroke="black" points="127.75,-36 0,-36 0,0 127.75,0 127.75,-36"/>
<text text-anchor="middle" x="63.88" y="-13.72" font-family="Helvetica,sans-Serif" font-size="12.00">SeuratClusterStats</text>
</g>
<!-- IntegratingTCR&#45;&gt;RadarPlots -->
<g id="edge12" class="edge">
<title>IntegratingTCR&#45;&gt;RadarPlots</title>
<path fill="none" stroke="black" d="M189.64,-71.7C189.08,-63.81 188.4,-54.3 187.77,-45.55"/>
<polygon fill="black" stroke="black" points="190.57,-45.39 187.2,-37.61 184.98,-45.79 190.57,-45.39"/>
</g>
<!-- IntegratingTCR&#45;&gt;Immunarch -->
<g id="edge3" class="edge">
<title>IntegratingTCR&#45;&gt;Immunarch</title>
<path fill="none" stroke="black" d="M214.61,-71.7C226.95,-62.69 242.21,-51.57 255.51,-41.87"/>
<polygon fill="black" stroke="black" points="257.05,-44.21 261.86,-37.24 253.75,-39.69 257.05,-44.21"/>
</g>
<!-- IntegratingTCR&#45;&gt;SeuratClusterStats -->
<g id="edge8" class="edge">
<title>IntegratingTCR&#45;&gt;SeuratClusterStats</title>
<path fill="none" stroke="black" d="M159.16,-71.52C142.21,-62.18 121.19,-50.59 103.21,-40.68"/>
<polygon fill="black" stroke="black" points="104.87,-38.4 96.52,-36.99 102.17,-43.31 104.87,-38.4"/>
</g>
</g>
</svg>
