<?xml version="1.0" encoding="UTF-8" standalone="no"?>
<!DOCTYPE svg PUBLIC "-//W3C//DTD SVG 1.1//EN"
 "http://www.w3.org/Graphics/SVG/1.1/DTD/svg11.dtd">
<!-- Generated by graphviz version 7.0.5 (20221231.0122)
 -->
<!-- Title: ImmunopipeCD3 Pages: 1 -->
<svg width="340pt" height="586pt"
 viewBox="0.00 0.00 340.00 586.00" xmlns="http://www.w3.org/2000/svg" xmlns:xlink="http://www.w3.org/1999/xlink">
<g id="graph0" class="graph" transform="scale(1 1) rotate(0) translate(4 582)">
<title>ImmunopipeCD3</title>
<polygon fill="white" stroke="none" points="-4,4 -4,-582 336,-582 336,4 -4,4"/>
<text text-anchor="middle" x="166" y="-562.8" font-family="Helvetica,sans-Serif" font-size="14.00">ImmunopipeCD3</text>
<text text-anchor="middle" x="166" y="-547.8" font-family="Helvetica,sans-Serif" font-size="14.00"> </text>
<!-- Immunarch -->
<g id="node1" class="node">
<title>Immunarch</title>
<g id="a_node1"><a xlink:title="Exploration of Single&#45;cell and Bulk T&#45;cell/Antibody Immune Repertoires">
<polygon fill="none" stroke="black" points="332,-36 246,-36 246,0 332,0 332,-36"/>
<text text-anchor="middle" x="289" y="-14.9" font-family="Helvetica,sans-Serif" font-size="12.00">Immunarch</text>
</a>
</g>
</g>
<!-- SeuratPreparing -->
<g id="node2" class="node">
<title>SeuratPreparing</title>
<g id="a_node2"><a xlink:title="Load, prepare and apply QC to data, using `Seurat`">
<path fill="none" stroke="black" d="M178.5,-468C178.5,-468 89.5,-468 89.5,-468 83.5,-468 77.5,-462 77.5,-456 77.5,-456 77.5,-444 77.5,-444 77.5,-438 83.5,-432 89.5,-432 89.5,-432 178.5,-432 178.5,-432 184.5,-432 190.5,-438 190.5,-444 190.5,-444 190.5,-456 190.5,-456 190.5,-462 184.5,-468 178.5,-468"/>
<text text-anchor="middle" x="134" y="-446.9" font-family="Helvetica,sans-Serif" font-size="12.00">SeuratPreparing</text>
</a>
</g>
</g>
<!-- SeuratClusteringOfAllCells -->
<g id="node8" class="node">
<title>SeuratClusteringOfAllCells</title>
<g id="a_node8"><a xlink:title="Cluster all cells, including T cells and non&#45;T cells using Seurat">
<path fill="none" stroke="black" d="M165.5,-396C165.5,-396 16.5,-396 16.5,-396 10.5,-396 4.5,-390 4.5,-384 4.5,-384 4.5,-372 4.5,-372 4.5,-366 10.5,-360 16.5,-360 16.5,-360 165.5,-360 165.5,-360 171.5,-360 177.5,-366 177.5,-372 177.5,-372 177.5,-384 177.5,-384 177.5,-390 171.5,-396 165.5,-396"/>
<text text-anchor="middle" x="91" y="-374.9" font-family="Helvetica,sans-Serif" font-size="12.00">SeuratClusteringOfAllCells</text>
</a>
</g>
</g>
<!-- SeuratPreparing&#45;&gt;SeuratClusteringOfAllCells -->
<g id="edge3" class="edge">
<title>SeuratPreparing&#45;&gt;SeuratClusteringOfAllCells</title>
<path fill="none" stroke="black" d="M123.37,-431.7C118.27,-423.39 112.06,-413.28 106.44,-404.14"/>
<polygon fill="black" stroke="black" points="108.87,-402.75 102.3,-397.39 104.1,-405.68 108.87,-402.75"/>
</g>
<!-- TCellSelection -->
<g id="node3" class="node">
<title>TCellSelection</title>
<path fill="none" stroke="black" d="M138,-324C138,-324 62,-324 62,-324 56,-324 50,-318 50,-312 50,-312 50,-300 50,-300 50,-294 56,-288 62,-288 62,-288 138,-288 138,-288 144,-288 150,-294 150,-300 150,-300 150,-312 150,-312 150,-318 144,-324 138,-324"/>
<text text-anchor="middle" x="100" y="-302.9" font-family="Helvetica,sans-Serif" font-size="12.00">TCellSelection</text>
</g>
<!-- SeuratClustering -->
<g id="node10" class="node">
<title>SeuratClustering</title>
<g id="a_node10"><a xlink:title="Cluster all T cells or selected T cells selected by `TCellSelection`.">
<path fill="none" stroke="black" d="M146,-252C146,-252 54,-252 54,-252 48,-252 42,-246 42,-240 42,-240 42,-228 42,-228 42,-222 48,-216 54,-216 54,-216 146,-216 146,-216 152,-216 158,-222 158,-228 158,-228 158,-240 158,-240 158,-246 152,-252 146,-252"/>
<text text-anchor="middle" x="100" y="-230.9" font-family="Helvetica,sans-Serif" font-size="12.00">SeuratClustering</text>
</a>
</g>
</g>
<!-- TCellSelection&#45;&gt;SeuratClustering -->
<g id="edge12" class="edge">
<title>TCellSelection&#45;&gt;SeuratClustering</title>
<path fill="none" stroke="black" d="M100,-287.7C100,-279.81 100,-270.3 100,-261.55"/>
<polygon fill="black" stroke="black" points="102.8,-261.62 100,-253.62 97.2,-261.62 102.8,-261.62"/>
</g>
<!-- IntegratingTCR -->
<g id="node4" class="node">
<title>IntegratingTCR</title>
<g id="a_node4"><a xlink:title="Attach TCR clone information as meta columns to Seurat object">
<path fill="none" stroke="black" d="M234,-108C234,-108 152,-108 152,-108 146,-108 140,-102 140,-96 140,-96 140,-84 140,-84 140,-78 146,-72 152,-72 152,-72 234,-72 234,-72 240,-72 246,-78 246,-84 246,-84 246,-96 246,-96 246,-102 240,-108 234,-108"/>
<text text-anchor="middle" x="193" y="-86.9" font-family="Helvetica,sans-Serif" font-size="12.00">IntegratingTCR</text>
</a>
</g>
</g>
<!-- IntegratingTCR&#45;&gt;Immunarch -->
<g id="edge14" class="edge">
<title>IntegratingTCR&#45;&gt;Immunarch</title>
<path fill="none" stroke="black" d="M216.73,-71.7C229.08,-62.69 244.33,-51.57 257.64,-41.87"/>
<polygon fill="black" stroke="black" points="259.17,-44.21 263.99,-37.24 255.87,-39.69 259.17,-44.21"/>
</g>
<!-- SeuratClusterStats -->
<g id="node5" class="node">
<title>SeuratClusterStats</title>
<polygon fill="none" stroke="black" points="128,-36 0,-36 0,0 128,0 128,-36"/>
<text text-anchor="middle" x="64" y="-14.9" font-family="Helvetica,sans-Serif" font-size="12.00">SeuratClusterStats</text>
</g>
<!-- IntegratingTCR&#45;&gt;SeuratClusterStats -->
<g id="edge10" class="edge">
<title>IntegratingTCR&#45;&gt;SeuratClusterStats</title>
<path fill="none" stroke="black" d="M160.78,-71.52C143.57,-62.18 122.22,-50.59 103.96,-40.68"/>
<polygon fill="black" stroke="black" points="105.51,-38.34 97.14,-36.98 102.84,-43.26 105.51,-38.34"/>
</g>
<!-- RadarPlots -->
<g id="node6" class="node">
<title>RadarPlots</title>
<g id="a_node6"><a xlink:title="Radar plots for cell proportion in different clusters.">
<polygon fill="none" stroke="black" points="227.5,-36 146.5,-36 146.5,0 227.5,0 227.5,-36"/>
<text text-anchor="middle" x="187" y="-14.9" font-family="Helvetica,sans-Serif" font-size="12.00">RadarPlots</text>
</a>
</g>
</g>
<!-- IntegratingTCR&#45;&gt;RadarPlots -->
<g id="edge9" class="edge">
<title>IntegratingTCR&#45;&gt;RadarPlots</title>
<path fill="none" stroke="black" d="M191.52,-71.7C190.84,-63.81 190.03,-54.3 189.28,-45.55"/>
<polygon fill="black" stroke="black" points="192.07,-45.34 188.6,-37.61 186.49,-45.82 192.07,-45.34"/>
</g>
<!-- SeuratSubClustering -->
<g id="node7" class="node">
<title>SeuratSubClustering</title>
<g id="a_node7"><a xlink:title="Sub&#45;cluster the selected T cells.">
<path fill="none" stroke="black" d="M157.5,-180C157.5,-180 42.5,-180 42.5,-180 36.5,-180 30.5,-174 30.5,-168 30.5,-168 30.5,-156 30.5,-156 30.5,-150 36.5,-144 42.5,-144 42.5,-144 157.5,-144 157.5,-144 163.5,-144 169.5,-150 169.5,-156 169.5,-156 169.5,-168 169.5,-168 169.5,-174 163.5,-180 157.5,-180"/>
<text text-anchor="middle" x="100" y="-158.9" font-family="Helvetica,sans-Serif" font-size="12.00">SeuratSubClustering</text>
</a>
</g>
</g>
<!-- SeuratSubClustering&#45;&gt;IntegratingTCR -->
<g id="edge2" class="edge">
<title>SeuratSubClustering&#45;&gt;IntegratingTCR</title>
<path fill="none" stroke="black" d="M122.99,-143.7C134.95,-134.69 149.73,-123.57 162.62,-113.87"/>
<polygon fill="black" stroke="black" points="164.04,-116.31 168.74,-109.26 160.67,-111.83 164.04,-116.31"/>
</g>
<!-- ClusterMarkers -->
<g id="node12" class="node">
<title>ClusterMarkers</title>
<g id="a_node12"><a xlink:title="Markers for clusters of all or selected T cells.">
<polygon fill="none" stroke="black" points="121.5,-108 14.5,-108 14.5,-72 121.5,-72 121.5,-108"/>
<text text-anchor="middle" x="68" y="-86.9" font-family="Helvetica,sans-Serif" font-size="12.00">ClusterMarkers</text>
</a>
</g>
</g>
<!-- SeuratSubClustering&#45;&gt;ClusterMarkers -->
<g id="edge8" class="edge">
<title>SeuratSubClustering&#45;&gt;ClusterMarkers</title>
<path fill="none" stroke="black" d="M92.09,-143.7C88.37,-135.56 83.86,-125.69 79.75,-116.7"/>
<polygon fill="black" stroke="black" points="82.32,-115.59 76.45,-109.48 77.23,-117.92 82.32,-115.59"/>
</g>
<!-- SeuratClusteringOfAllCells&#45;&gt;TCellSelection -->
<g id="edge13" class="edge">
<title>SeuratClusteringOfAllCells&#45;&gt;TCellSelection</title>
<path fill="none" stroke="black" d="M93.22,-359.7C94.25,-351.73 95.49,-342.1 96.62,-333.26"/>
<polygon fill="black" stroke="black" points="99.36,-333.9 97.61,-325.61 93.81,-333.18 99.36,-333.9"/>
</g>
<!-- SampleInfo -->
<g id="node9" class="node">
<title>SampleInfo</title>
<g id="a_node9"><a xlink:title="List sample information and perform statistics">
<polygon fill="none" stroke="black" points="176,-540 102,-522 176,-504 250,-522 176,-540"/>
<text text-anchor="middle" x="176" y="-518.9" font-family="Helvetica,sans-Serif" font-size="12.00">SampleInfo</text>
</a>
</g>
</g>
<!-- SampleInfo&#45;&gt;SeuratPreparing -->
<g id="edge7" class="edge">
<title>SampleInfo&#45;&gt;SeuratPreparing</title>
<path fill="none" stroke="black" d="M166.89,-505.81C161.68,-497.14 155.03,-486.05 149.07,-476.12"/>
<polygon fill="black" stroke="black" points="151.57,-474.84 145.05,-469.42 146.77,-477.73 151.57,-474.84"/>
</g>
<!-- ImmunarchLoading -->
<g id="node11" class="node">
<title>ImmunarchLoading</title>
<g id="a_node11"><a xlink:title="Immuarch &#45; Loading data">
<path fill="none" stroke="black" d="M316.5,-396C316.5,-396 207.5,-396 207.5,-396 201.5,-396 195.5,-390 195.5,-384 195.5,-384 195.5,-372 195.5,-372 195.5,-366 201.5,-360 207.5,-360 207.5,-360 316.5,-360 316.5,-360 322.5,-360 328.5,-366 328.5,-372 328.5,-372 328.5,-384 328.5,-384 328.5,-390 322.5,-396 316.5,-396"/>
<text text-anchor="middle" x="262" y="-374.9" font-family="Helvetica,sans-Serif" font-size="12.00">ImmunarchLoading</text>
</a>
</g>
</g>
<!-- SampleInfo&#45;&gt;ImmunarchLoading -->
<g id="edge11" class="edge">
<title>SampleInfo&#45;&gt;ImmunarchLoading</title>
<path fill="none" stroke="black" d="M185.2,-505.8C199.94,-481.48 228.97,-433.53 246.82,-404.07"/>
<polygon fill="black" stroke="black" points="249,-405.88 250.75,-397.58 244.21,-402.97 249,-405.88"/>
</g>
<!-- SeuratClustering&#45;&gt;SeuratSubClustering -->
<g id="edge4" class="edge">
<title>SeuratClustering&#45;&gt;SeuratSubClustering</title>
<path fill="none" stroke="black" d="M100,-215.7C100,-207.81 100,-198.3 100,-189.55"/>
<polygon fill="black" stroke="black" points="102.8,-189.62 100,-181.62 97.2,-189.62 102.8,-189.62"/>
</g>
<!-- ImmunarchLoading&#45;&gt;Immunarch -->
<g id="edge6" class="edge">
<title>ImmunarchLoading&#45;&gt;Immunarch</title>
<path fill="none" stroke="black" d="M266.45,-359.65C272.88,-333.02 284,-280.4 284,-235 284,-235 284,-235 284,-161 284,-120.84 286.02,-74.33 287.49,-45.79"/>
<polygon fill="black" stroke="black" points="290.28,-46.13 287.91,-37.99 284.69,-45.83 290.28,-46.13"/>
</g>
<!-- ImmunarchLoading&#45;&gt;TCellSelection -->
<g id="edge5" class="edge">
<title>ImmunarchLoading&#45;&gt;TCellSelection</title>
<path fill="none" stroke="black" d="M221.54,-359.52C199.52,-350 172.11,-338.16 148.9,-328.13"/>
<polygon fill="black" stroke="black" points="150.07,-325.59 141.62,-324.98 147.85,-330.73 150.07,-325.59"/>
</g>
<!-- ImmunarchLoading&#45;&gt;IntegratingTCR -->
<g id="edge1" class="edge">
<title>ImmunarchLoading&#45;&gt;IntegratingTCR</title>
<path fill="none" stroke="black" d="M257.79,-359.54C246.12,-311.16 213.3,-175.15 199.38,-117.43"/>
<polygon fill="black" stroke="black" points="202.11,-116.82 197.51,-109.7 196.67,-118.14 202.11,-116.82"/>
</g>
</g>
</svg>
