<?xml version="1.0" encoding="UTF-8" standalone="no"?>
<!DOCTYPE svg PUBLIC "-//W3C//DTD SVG 1.1//EN"
 "http://www.w3.org/Graphics/SVG/1.1/DTD/svg11.dtd">
<!-- Generated by graphviz version 3.0.0 (20220315.2325)
 -->
<!-- Title: ImmunopipeCD3 Pages: 1 -->
<svg width="315pt" height="586pt"
 viewBox="0.00 0.00 314.50 586.00" xmlns="http://www.w3.org/2000/svg" xmlns:xlink="http://www.w3.org/1999/xlink">
<g id="graph0" class="graph" transform="scale(1 1) rotate(0) translate(4 582)">
<title>ImmunopipeCD3</title>
<polygon fill="white" stroke="transparent" points="-4,4 -4,-582 310.5,-582 310.5,4 -4,4"/>
<text text-anchor="middle" x="153.25" y="-562.8" font-family="Helvetica,sans-Serif" font-size="14.00">ImmunopipeCD3</text>
<text text-anchor="middle" x="153.25" y="-547.8" font-family="Helvetica,sans-Serif" font-size="14.00"> </text>
<!-- IntegratingTCR -->
<g id="node1" class="node">
<title>IntegratingTCR</title>
<g id="a_node1"><a xlink:title="Attach TCR clone information as meta columns to Seurat object">
<path fill="none" stroke="black" d="M165,-108C165,-108 91,-108 91,-108 85,-108 79,-102 79,-96 79,-96 79,-84 79,-84 79,-78 85,-72 91,-72 91,-72 165,-72 165,-72 171,-72 177,-78 177,-84 177,-84 177,-96 177,-96 177,-102 171,-108 165,-108"/>
<text text-anchor="middle" x="128" y="-86.9" font-family="Helvetica,sans-Serif" font-size="12.00">IntegratingTCR</text>
</a>
</g>
</g>
<!-- RadarPlots -->
<g id="node2" class="node">
<title>RadarPlots</title>
<g id="a_node2"><a xlink:title="Radar plots for cell proportion in different clusters.">
<polygon fill="none" stroke="black" points="171.5,-36 94.5,-36 94.5,0 171.5,0 171.5,-36"/>
<text text-anchor="middle" x="133" y="-14.9" font-family="Helvetica,sans-Serif" font-size="12.00">RadarPlots</text>
</a>
</g>
</g>
<!-- IntegratingTCR&#45;&gt;RadarPlots -->
<g id="edge9" class="edge">
<title>IntegratingTCR&#45;&gt;RadarPlots</title>
<path fill="none" stroke="black" d="M129.24,-71.7C129.83,-63.39 130.55,-53.28 131.2,-44.14"/>
<polygon fill="black" stroke="black" points="134,-44.28 131.78,-36.1 128.42,-43.88 134,-44.28"/>
</g>
<!-- Immunarch -->
<g id="node10" class="node">
<title>Immunarch</title>
<g id="a_node10"><a xlink:title="Exploration of Single&#45;cell and Bulk T&#45;cell/Antibody Immune Repertoires">
<polygon fill="none" stroke="black" points="76,-36 0,-36 0,0 76,0 76,-36"/>
<text text-anchor="middle" x="38" y="-14.9" font-family="Helvetica,sans-Serif" font-size="12.00">Immunarch</text>
</a>
</g>
</g>
<!-- IntegratingTCR&#45;&gt;Immunarch -->
<g id="edge2" class="edge">
<title>IntegratingTCR&#45;&gt;Immunarch</title>
<path fill="none" stroke="black" d="M105.75,-71.7C93.87,-62.46 79.12,-50.98 66.42,-41.11"/>
<polygon fill="black" stroke="black" points="68.03,-38.81 59.99,-36.1 64.59,-43.23 68.03,-38.81"/>
</g>
<!-- SeuratClusterStats -->
<g id="node11" class="node">
<title>SeuratClusterStats</title>
<polygon fill="none" stroke="black" points="306.5,-36 189.5,-36 189.5,0 306.5,0 306.5,-36"/>
<text text-anchor="middle" x="248" y="-14.9" font-family="Helvetica,sans-Serif" font-size="12.00">SeuratClusterStats</text>
</g>
<!-- IntegratingTCR&#45;&gt;SeuratClusterStats -->
<g id="edge12" class="edge">
<title>IntegratingTCR&#45;&gt;SeuratClusterStats</title>
<path fill="none" stroke="black" d="M157.36,-71.88C173.63,-62.38 194.01,-50.5 211.32,-40.4"/>
<polygon fill="black" stroke="black" points="213.03,-42.64 218.53,-36.19 210.21,-37.8 213.03,-42.64"/>
</g>
<!-- ImmunarchLoading -->
<g id="node3" class="node">
<title>ImmunarchLoading</title>
<g id="a_node3"><a xlink:title="Immuarch &#45; Loading data">
<path fill="none" stroke="black" d="M113.5,-396C113.5,-396 18.5,-396 18.5,-396 12.5,-396 6.5,-390 6.5,-384 6.5,-384 6.5,-372 6.5,-372 6.5,-366 12.5,-360 18.5,-360 18.5,-360 113.5,-360 113.5,-360 119.5,-360 125.5,-366 125.5,-372 125.5,-372 125.5,-384 125.5,-384 125.5,-390 119.5,-396 113.5,-396"/>
<text text-anchor="middle" x="66" y="-374.9" font-family="Helvetica,sans-Serif" font-size="12.00">ImmunarchLoading</text>
</a>
</g>
</g>
<!-- ImmunarchLoading&#45;&gt;IntegratingTCR -->
<g id="edge10" class="edge">
<title>ImmunarchLoading&#45;&gt;IntegratingTCR</title>
<path fill="none" stroke="black" d="M69.69,-359.97C80.16,-311.7 110.05,-173.8 122.48,-116.47"/>
<polygon fill="black" stroke="black" points="125.29,-116.72 124.25,-108.31 119.82,-115.53 125.29,-116.72"/>
</g>
<!-- TCellSelection -->
<g id="node8" class="node">
<title>TCellSelection</title>
<path fill="none" stroke="black" d="M247,-324C247,-324 175,-324 175,-324 169,-324 163,-318 163,-312 163,-312 163,-300 163,-300 163,-294 169,-288 175,-288 175,-288 247,-288 247,-288 253,-288 259,-294 259,-300 259,-300 259,-312 259,-312 259,-318 253,-324 247,-324"/>
<text text-anchor="middle" x="211" y="-302.9" font-family="Helvetica,sans-Serif" font-size="12.00">TCellSelection</text>
</g>
<!-- ImmunarchLoading&#45;&gt;TCellSelection -->
<g id="edge6" class="edge">
<title>ImmunarchLoading&#45;&gt;TCellSelection</title>
<path fill="none" stroke="black" d="M101.47,-359.88C121.65,-350.14 147.05,-337.87 168.31,-327.61"/>
<polygon fill="black" stroke="black" points="169.66,-330.07 175.64,-324.07 167.22,-325.02 169.66,-330.07"/>
</g>
<!-- ImmunarchLoading&#45;&gt;Immunarch -->
<g id="edge3" class="edge">
<title>ImmunarchLoading&#45;&gt;Immunarch</title>
<path fill="none" stroke="black" d="M62.16,-359.61C56.6,-332.94 47,-280.27 47,-235 47,-235 47,-235 47,-161 47,-120.03 43.22,-72.55 40.56,-44.19"/>
<polygon fill="black" stroke="black" points="43.33,-43.72 39.78,-36.03 37.76,-44.26 43.33,-43.72"/>
</g>
<!-- SeuratClusteringOfAllCells -->
<g id="node4" class="node">
<title>SeuratClusteringOfAllCells</title>
<g id="a_node4"><a xlink:title="Cluster all cells, including T cells and non&#45;T cells using Seurat">
<path fill="none" stroke="black" d="M292.5,-396C292.5,-396 155.5,-396 155.5,-396 149.5,-396 143.5,-390 143.5,-384 143.5,-384 143.5,-372 143.5,-372 143.5,-366 149.5,-360 155.5,-360 155.5,-360 292.5,-360 292.5,-360 298.5,-360 304.5,-366 304.5,-372 304.5,-372 304.5,-384 304.5,-384 304.5,-390 298.5,-396 292.5,-396"/>
<text text-anchor="middle" x="224" y="-374.9" font-family="Helvetica,sans-Serif" font-size="12.00">SeuratClusteringOfAllCells</text>
</a>
</g>
</g>
<!-- SeuratClusteringOfAllCells&#45;&gt;TCellSelection -->
<g id="edge1" class="edge">
<title>SeuratClusteringOfAllCells&#45;&gt;TCellSelection</title>
<path fill="none" stroke="black" d="M220.79,-359.7C219.24,-351.39 217.37,-341.28 215.67,-332.14"/>
<polygon fill="black" stroke="black" points="218.39,-331.46 214.18,-324.1 212.88,-332.48 218.39,-331.46"/>
</g>
<!-- SeuratPreparing -->
<g id="node5" class="node">
<title>SeuratPreparing</title>
<g id="a_node5"><a xlink:title="Load, prepare and apply QC to data, using `Seurat`">
<path fill="none" stroke="black" d="M244,-468C244,-468 164,-468 164,-468 158,-468 152,-462 152,-456 152,-456 152,-444 152,-444 152,-438 158,-432 164,-432 164,-432 244,-432 244,-432 250,-432 256,-438 256,-444 256,-444 256,-456 256,-456 256,-462 250,-468 244,-468"/>
<text text-anchor="middle" x="204" y="-446.9" font-family="Helvetica,sans-Serif" font-size="12.00">SeuratPreparing</text>
</a>
</g>
</g>
<!-- SeuratPreparing&#45;&gt;SeuratClusteringOfAllCells -->
<g id="edge14" class="edge">
<title>SeuratPreparing&#45;&gt;SeuratClusteringOfAllCells</title>
<path fill="none" stroke="black" d="M208.94,-431.7C211.34,-423.3 214.27,-413.07 216.9,-403.86"/>
<polygon fill="black" stroke="black" points="219.61,-404.57 219.11,-396.1 214.22,-403.03 219.61,-404.57"/>
</g>
<!-- SampleInfo -->
<g id="node6" class="node">
<title>SampleInfo</title>
<g id="a_node6"><a xlink:title="List sample information and perform statistics">
<polygon fill="none" stroke="black" points="145,-540 77.93,-522 145,-504 212.07,-522 145,-540"/>
<text text-anchor="middle" x="145" y="-518.9" font-family="Helvetica,sans-Serif" font-size="12.00">SampleInfo</text>
</a>
</g>
</g>
<!-- SampleInfo&#45;&gt;ImmunarchLoading -->
<g id="edge7" class="edge">
<title>SampleInfo&#45;&gt;ImmunarchLoading</title>
<path fill="none" stroke="black" d="M136.69,-506.07C123.11,-481.65 96.01,-432.94 79.59,-403.43"/>
<polygon fill="black" stroke="black" points="82,-402 75.66,-396.37 77.1,-404.72 82,-402"/>
</g>
<!-- SampleInfo&#45;&gt;SeuratPreparing -->
<g id="edge4" class="edge">
<title>SampleInfo&#45;&gt;SeuratPreparing</title>
<path fill="none" stroke="black" d="M156.94,-506.83C164.82,-497.48 175.33,-485.01 184.42,-474.23"/>
<polygon fill="black" stroke="black" points="186.56,-476.03 189.58,-468.11 182.28,-472.43 186.56,-476.03"/>
</g>
<!-- SeuratClustering -->
<g id="node7" class="node">
<title>SeuratClustering</title>
<g id="a_node7"><a xlink:title="Cluster all T cells or selected T cells selected by `TCellSelection`.">
<path fill="none" stroke="black" d="M252.5,-252C252.5,-252 169.5,-252 169.5,-252 163.5,-252 157.5,-246 157.5,-240 157.5,-240 157.5,-228 157.5,-228 157.5,-222 163.5,-216 169.5,-216 169.5,-216 252.5,-216 252.5,-216 258.5,-216 264.5,-222 264.5,-228 264.5,-228 264.5,-240 264.5,-240 264.5,-246 258.5,-252 252.5,-252"/>
<text text-anchor="middle" x="211" y="-230.9" font-family="Helvetica,sans-Serif" font-size="12.00">SeuratClustering</text>
</a>
</g>
</g>
<!-- SeuratSubClustering -->
<g id="node12" class="node">
<title>SeuratSubClustering</title>
<g id="a_node12"><a xlink:title="Sub&#45;cluster the selected T cells.">
<path fill="none" stroke="black" d="M263,-180C263,-180 159,-180 159,-180 153,-180 147,-174 147,-168 147,-168 147,-156 147,-156 147,-150 153,-144 159,-144 159,-144 263,-144 263,-144 269,-144 275,-150 275,-156 275,-156 275,-168 275,-168 275,-174 269,-180 263,-180"/>
<text text-anchor="middle" x="211" y="-158.9" font-family="Helvetica,sans-Serif" font-size="12.00">SeuratSubClustering</text>
</a>
</g>
</g>
<!-- SeuratClustering&#45;&gt;SeuratSubClustering -->
<g id="edge8" class="edge">
<title>SeuratClustering&#45;&gt;SeuratSubClustering</title>
<path fill="none" stroke="black" d="M211,-215.7C211,-207.39 211,-197.28 211,-188.14"/>
<polygon fill="black" stroke="black" points="213.8,-188.1 211,-180.1 208.2,-188.1 213.8,-188.1"/>
</g>
<!-- TCellSelection&#45;&gt;SeuratClustering -->
<g id="edge5" class="edge">
<title>TCellSelection&#45;&gt;SeuratClustering</title>
<path fill="none" stroke="black" d="M211,-287.7C211,-279.39 211,-269.28 211,-260.14"/>
<polygon fill="black" stroke="black" points="213.8,-260.1 211,-252.1 208.2,-260.1 213.8,-260.1"/>
</g>
<!-- ClusterMarkers -->
<g id="node9" class="node">
<title>ClusterMarkers</title>
<g id="a_node9"><a xlink:title="Markers for clusters of all or selected T cells.">
<polygon fill="none" stroke="black" points="293,-108 195,-108 195,-72 293,-72 293,-108"/>
<text text-anchor="middle" x="244" y="-86.9" font-family="Helvetica,sans-Serif" font-size="12.00">ClusterMarkers</text>
</a>
</g>
</g>
<!-- SeuratSubClustering&#45;&gt;IntegratingTCR -->
<g id="edge11" class="edge">
<title>SeuratSubClustering&#45;&gt;IntegratingTCR</title>
<path fill="none" stroke="black" d="M190.48,-143.7C179.63,-134.54 166.17,-123.19 154.53,-113.38"/>
<polygon fill="black" stroke="black" points="156.2,-111.12 148.28,-108.1 152.59,-115.4 156.2,-111.12"/>
</g>
<!-- SeuratSubClustering&#45;&gt;ClusterMarkers -->
<g id="edge13" class="edge">
<title>SeuratSubClustering&#45;&gt;ClusterMarkers</title>
<path fill="none" stroke="black" d="M219.16,-143.7C223.15,-135.22 228.04,-124.86 232.41,-115.58"/>
<polygon fill="black" stroke="black" points="235.06,-116.53 235.94,-108.1 229.99,-114.15 235.06,-116.53"/>
</g>
</g>
</svg>
