<?xml version="1.0" encoding="UTF-8" standalone="no"?>
<!DOCTYPE svg PUBLIC "-//W3C//DTD SVG 1.1//EN"
 "http://www.w3.org/Graphics/SVG/1.1/DTD/svg11.dtd">
<!-- Generated by graphviz version 3.0.0 (20220315.2325)
 -->
<!-- Title: ImmunopipeCD3 Pages: 1 -->
<svg width="322pt" height="586pt"
 viewBox="0.00 0.00 321.50 586.00" xmlns="http://www.w3.org/2000/svg" xmlns:xlink="http://www.w3.org/1999/xlink">
<g id="graph0" class="graph" transform="scale(1 1) rotate(0) translate(4 582)">
<title>ImmunopipeCD3</title>
<polygon fill="white" stroke="transparent" points="-4,4 -4,-582 317.5,-582 317.5,4 -4,4"/>
<text text-anchor="middle" x="156.75" y="-562.8" font-family="Helvetica,sans-Serif" font-size="14.00">ImmunopipeCD3</text>
<text text-anchor="middle" x="156.75" y="-547.8" font-family="Helvetica,sans-Serif" font-size="14.00"> </text>
<!-- SeuratClusteringOfAllCells -->
<g id="node1" class="node">
<title>SeuratClusteringOfAllCells</title>
<g id="a_node1"><a xlink:title="Cluster all cells, including T cells and non&#45;T cells using Seurat">
<path fill="none" stroke="black" d="M149,-396C149,-396 12,-396 12,-396 6,-396 0,-390 0,-384 0,-384 0,-372 0,-372 0,-366 6,-360 12,-360 12,-360 149,-360 149,-360 155,-360 161,-366 161,-372 161,-372 161,-384 161,-384 161,-390 155,-396 149,-396"/>
<text text-anchor="middle" x="80.5" y="-374.9" font-family="Helvetica,sans-Serif" font-size="12.00">SeuratClusteringOfAllCells</text>
</a>
</g>
</g>
<!-- TCellSelection -->
<g id="node9" class="node">
<title>TCellSelection</title>
<path fill="none" stroke="black" d="M149.5,-324C149.5,-324 77.5,-324 77.5,-324 71.5,-324 65.5,-318 65.5,-312 65.5,-312 65.5,-300 65.5,-300 65.5,-294 71.5,-288 77.5,-288 77.5,-288 149.5,-288 149.5,-288 155.5,-288 161.5,-294 161.5,-300 161.5,-300 161.5,-312 161.5,-312 161.5,-318 155.5,-324 149.5,-324"/>
<text text-anchor="middle" x="113.5" y="-302.9" font-family="Helvetica,sans-Serif" font-size="12.00">TCellSelection</text>
</g>
<!-- SeuratClusteringOfAllCells&#45;&gt;TCellSelection -->
<g id="edge13" class="edge">
<title>SeuratClusteringOfAllCells&#45;&gt;TCellSelection</title>
<path fill="none" stroke="black" d="M88.66,-359.7C92.65,-351.22 97.54,-340.86 101.91,-331.58"/>
<polygon fill="black" stroke="black" points="104.56,-332.53 105.44,-324.1 99.49,-330.15 104.56,-332.53"/>
</g>
<!-- SeuratClusterStats -->
<g id="node2" class="node">
<title>SeuratClusterStats</title>
<polygon fill="none" stroke="black" points="219,-36 102,-36 102,0 219,0 219,-36"/>
<text text-anchor="middle" x="160.5" y="-14.9" font-family="Helvetica,sans-Serif" font-size="12.00">SeuratClusterStats</text>
</g>
<!-- SampleInfo -->
<g id="node3" class="node">
<title>SampleInfo</title>
<g id="a_node3"><a xlink:title="List sample information and perform statistics">
<polygon fill="none" stroke="black" points="159.5,-540 92.43,-522 159.5,-504 226.57,-522 159.5,-540"/>
<text text-anchor="middle" x="159.5" y="-518.9" font-family="Helvetica,sans-Serif" font-size="12.00">SampleInfo</text>
</a>
</g>
</g>
<!-- SeuratPreparing -->
<g id="node4" class="node">
<title>SeuratPreparing</title>
<g id="a_node4"><a xlink:title="Load, prepare and apply QC to data, using `Seurat`">
<path fill="none" stroke="black" d="M159.5,-468C159.5,-468 79.5,-468 79.5,-468 73.5,-468 67.5,-462 67.5,-456 67.5,-456 67.5,-444 67.5,-444 67.5,-438 73.5,-432 79.5,-432 79.5,-432 159.5,-432 159.5,-432 165.5,-432 171.5,-438 171.5,-444 171.5,-444 171.5,-456 171.5,-456 171.5,-462 165.5,-468 159.5,-468"/>
<text text-anchor="middle" x="119.5" y="-446.9" font-family="Helvetica,sans-Serif" font-size="12.00">SeuratPreparing</text>
</a>
</g>
</g>
<!-- SampleInfo&#45;&gt;SeuratPreparing -->
<g id="edge2" class="edge">
<title>SampleInfo&#45;&gt;SeuratPreparing</title>
<path fill="none" stroke="black" d="M151.02,-506.15C145.89,-497.18 139.22,-485.52 133.35,-475.23"/>
<polygon fill="black" stroke="black" points="135.64,-473.6 129.24,-468.04 130.78,-476.38 135.64,-473.6"/>
</g>
<!-- ImmunarchLoading -->
<g id="node6" class="node">
<title>ImmunarchLoading</title>
<g id="a_node6"><a xlink:title="Immuarch &#45; Loading data">
<path fill="none" stroke="black" d="M286,-396C286,-396 191,-396 191,-396 185,-396 179,-390 179,-384 179,-384 179,-372 179,-372 179,-366 185,-360 191,-360 191,-360 286,-360 286,-360 292,-360 298,-366 298,-372 298,-372 298,-384 298,-384 298,-390 292,-396 286,-396"/>
<text text-anchor="middle" x="238.5" y="-374.9" font-family="Helvetica,sans-Serif" font-size="12.00">ImmunarchLoading</text>
</a>
</g>
</g>
<!-- SampleInfo&#45;&gt;ImmunarchLoading -->
<g id="edge7" class="edge">
<title>SampleInfo&#45;&gt;ImmunarchLoading</title>
<path fill="none" stroke="black" d="M167.81,-506.07C181.39,-481.65 208.49,-432.94 224.91,-403.43"/>
<polygon fill="black" stroke="black" points="227.4,-404.72 228.84,-396.37 222.5,-402 227.4,-404.72"/>
</g>
<!-- SeuratPreparing&#45;&gt;SeuratClusteringOfAllCells -->
<g id="edge1" class="edge">
<title>SeuratPreparing&#45;&gt;SeuratClusteringOfAllCells</title>
<path fill="none" stroke="black" d="M109.86,-431.7C105.09,-423.14 99.25,-412.66 94.04,-403.3"/>
<polygon fill="black" stroke="black" points="96.37,-401.73 90.03,-396.1 91.48,-404.46 96.37,-401.73"/>
</g>
<!-- ClusterMarkers -->
<g id="node5" class="node">
<title>ClusterMarkers</title>
<g id="a_node5"><a xlink:title="Markers for clusters of all or selected T cells.">
<polygon fill="none" stroke="black" points="131.5,-108 33.5,-108 33.5,-72 131.5,-72 131.5,-108"/>
<text text-anchor="middle" x="82.5" y="-86.9" font-family="Helvetica,sans-Serif" font-size="12.00">ClusterMarkers</text>
</a>
</g>
</g>
<!-- Immunarch -->
<g id="node8" class="node">
<title>Immunarch</title>
<g id="a_node8"><a xlink:title="Exploration of Single&#45;cell and Bulk T&#45;cell/Antibody Immune Repertoires">
<polygon fill="none" stroke="black" points="313.5,-36 237.5,-36 237.5,0 313.5,0 313.5,-36"/>
<text text-anchor="middle" x="275.5" y="-14.9" font-family="Helvetica,sans-Serif" font-size="12.00">Immunarch</text>
</a>
</g>
</g>
<!-- ImmunarchLoading&#45;&gt;Immunarch -->
<g id="edge12" class="edge">
<title>ImmunarchLoading&#45;&gt;Immunarch</title>
<path fill="none" stroke="black" d="M245.99,-359.89C256.8,-333.58 275.5,-281.37 275.5,-235 275.5,-235 275.5,-235 275.5,-161 275.5,-120.11 275.5,-72.61 275.5,-44.22"/>
<polygon fill="black" stroke="black" points="278.3,-44.05 275.5,-36.05 272.7,-44.05 278.3,-44.05"/>
</g>
<!-- ImmunarchLoading&#45;&gt;TCellSelection -->
<g id="edge9" class="edge">
<title>ImmunarchLoading&#45;&gt;TCellSelection</title>
<path fill="none" stroke="black" d="M207.92,-359.88C190.82,-350.3 169.36,-338.28 151.23,-328.13"/>
<polygon fill="black" stroke="black" points="152.54,-325.66 144.2,-324.19 149.81,-330.54 152.54,-325.66"/>
</g>
<!-- IntegratingTCR -->
<g id="node11" class="node">
<title>IntegratingTCR</title>
<g id="a_node11"><a xlink:title="Attach TCR clone information as meta columns to Seurat object">
<path fill="none" stroke="black" d="M235.5,-108C235.5,-108 161.5,-108 161.5,-108 155.5,-108 149.5,-102 149.5,-96 149.5,-96 149.5,-84 149.5,-84 149.5,-78 155.5,-72 161.5,-72 161.5,-72 235.5,-72 235.5,-72 241.5,-72 247.5,-78 247.5,-84 247.5,-84 247.5,-96 247.5,-96 247.5,-102 241.5,-108 235.5,-108"/>
<text text-anchor="middle" x="198.5" y="-86.9" font-family="Helvetica,sans-Serif" font-size="12.00">IntegratingTCR</text>
</a>
</g>
</g>
<!-- ImmunarchLoading&#45;&gt;IntegratingTCR -->
<g id="edge8" class="edge">
<title>ImmunarchLoading&#45;&gt;IntegratingTCR</title>
<path fill="none" stroke="black" d="M236.12,-359.97C229.37,-311.7 210.08,-173.8 202.06,-116.47"/>
<polygon fill="black" stroke="black" points="204.8,-115.84 200.92,-108.31 199.26,-116.62 204.8,-115.84"/>
</g>
<!-- SeuratClustering -->
<g id="node7" class="node">
<title>SeuratClustering</title>
<g id="a_node7"><a xlink:title="Cluster all T cells or selected T cells selected by `TCellSelection`.">
<path fill="none" stroke="black" d="M155,-252C155,-252 72,-252 72,-252 66,-252 60,-246 60,-240 60,-240 60,-228 60,-228 60,-222 66,-216 72,-216 72,-216 155,-216 155,-216 161,-216 167,-222 167,-228 167,-228 167,-240 167,-240 167,-246 161,-252 155,-252"/>
<text text-anchor="middle" x="113.5" y="-230.9" font-family="Helvetica,sans-Serif" font-size="12.00">SeuratClustering</text>
</a>
</g>
</g>
<!-- SeuratSubClustering -->
<g id="node10" class="node">
<title>SeuratSubClustering</title>
<g id="a_node10"><a xlink:title="Sub&#45;cluster the selected T cells.">
<path fill="none" stroke="black" d="M165.5,-180C165.5,-180 61.5,-180 61.5,-180 55.5,-180 49.5,-174 49.5,-168 49.5,-168 49.5,-156 49.5,-156 49.5,-150 55.5,-144 61.5,-144 61.5,-144 165.5,-144 165.5,-144 171.5,-144 177.5,-150 177.5,-156 177.5,-156 177.5,-168 177.5,-168 177.5,-174 171.5,-180 165.5,-180"/>
<text text-anchor="middle" x="113.5" y="-158.9" font-family="Helvetica,sans-Serif" font-size="12.00">SeuratSubClustering</text>
</a>
</g>
</g>
<!-- SeuratClustering&#45;&gt;SeuratSubClustering -->
<g id="edge3" class="edge">
<title>SeuratClustering&#45;&gt;SeuratSubClustering</title>
<path fill="none" stroke="black" d="M113.5,-215.7C113.5,-207.39 113.5,-197.28 113.5,-188.14"/>
<polygon fill="black" stroke="black" points="116.3,-188.1 113.5,-180.1 110.7,-188.1 116.3,-188.1"/>
</g>
<!-- TCellSelection&#45;&gt;SeuratClustering -->
<g id="edge10" class="edge">
<title>TCellSelection&#45;&gt;SeuratClustering</title>
<path fill="none" stroke="black" d="M113.5,-287.7C113.5,-279.39 113.5,-269.28 113.5,-260.14"/>
<polygon fill="black" stroke="black" points="116.3,-260.1 113.5,-252.1 110.7,-260.1 116.3,-260.1"/>
</g>
<!-- SeuratSubClustering&#45;&gt;ClusterMarkers -->
<g id="edge4" class="edge">
<title>SeuratSubClustering&#45;&gt;ClusterMarkers</title>
<path fill="none" stroke="black" d="M105.84,-143.7C102.08,-135.22 97.5,-124.86 93.39,-115.58"/>
<polygon fill="black" stroke="black" points="95.87,-114.29 90.07,-108.1 90.75,-116.55 95.87,-114.29"/>
</g>
<!-- SeuratSubClustering&#45;&gt;IntegratingTCR -->
<g id="edge5" class="edge">
<title>SeuratSubClustering&#45;&gt;IntegratingTCR</title>
<path fill="none" stroke="black" d="M134.51,-143.7C145.63,-134.54 159.41,-123.19 171.33,-113.38"/>
<polygon fill="black" stroke="black" points="173.33,-115.35 177.73,-108.1 169.77,-111.03 173.33,-115.35"/>
</g>
<!-- IntegratingTCR&#45;&gt;SeuratClusterStats -->
<g id="edge11" class="edge">
<title>IntegratingTCR&#45;&gt;SeuratClusterStats</title>
<path fill="none" stroke="black" d="M189.11,-71.7C184.46,-63.14 178.77,-52.66 173.69,-43.3"/>
<polygon fill="black" stroke="black" points="176.06,-41.8 169.79,-36.1 171.14,-44.47 176.06,-41.8"/>
</g>
<!-- IntegratingTCR&#45;&gt;Immunarch -->
<g id="edge6" class="edge">
<title>IntegratingTCR&#45;&gt;Immunarch</title>
<path fill="none" stroke="black" d="M217.53,-71.7C227.51,-62.63 239.86,-51.4 250.58,-41.65"/>
<polygon fill="black" stroke="black" points="252.65,-43.56 256.69,-36.1 248.88,-39.41 252.65,-43.56"/>
</g>
</g>
</svg>
