<?xml version="1.0" encoding="UTF-8" standalone="no"?>
<!DOCTYPE svg PUBLIC "-//W3C//DTD SVG 1.1//EN"
 "http://www.w3.org/Graphics/SVG/1.1/DTD/svg11.dtd">
<!-- Generated by graphviz version 3.0.0 (20220315.2325)
 -->
<!-- Title: ImmunopipeCD3 Pages: 1 -->
<svg width="341pt" height="586pt"
 viewBox="0.00 0.00 340.50 586.00" xmlns="http://www.w3.org/2000/svg" xmlns:xlink="http://www.w3.org/1999/xlink">
<g id="graph0" class="graph" transform="scale(1 1) rotate(0) translate(4 582)">
<title>ImmunopipeCD3</title>
<polygon fill="white" stroke="transparent" points="-4,4 -4,-582 336.5,-582 336.5,4 -4,4"/>
<text text-anchor="middle" x="166.25" y="-562.8" font-family="Helvetica,sans-Serif" font-size="14.00">ImmunopipeCD3</text>
<text text-anchor="middle" x="166.25" y="-547.8" font-family="Helvetica,sans-Serif" font-size="14.00"> </text>
<!-- SeuratPreparing -->
<g id="node1" class="node">
<title>SeuratPreparing</title>
<g id="a_node1"><a xlink:title="Load, prepare and apply QC to data, using `Seurat`">
<path fill="none" stroke="black" d="M159.5,-468C159.5,-468 79.5,-468 79.5,-468 73.5,-468 67.5,-462 67.5,-456 67.5,-456 67.5,-444 67.5,-444 67.5,-438 73.5,-432 79.5,-432 79.5,-432 159.5,-432 159.5,-432 165.5,-432 171.5,-438 171.5,-444 171.5,-444 171.5,-456 171.5,-456 171.5,-462 165.5,-468 159.5,-468"/>
<text text-anchor="middle" x="119.5" y="-446.9" font-family="Helvetica,sans-Serif" font-size="12.00">SeuratPreparing</text>
</a>
</g>
</g>
<!-- SeuratClusteringOfAllCells -->
<g id="node2" class="node">
<title>SeuratClusteringOfAllCells</title>
<g id="a_node2"><a xlink:title="Cluster all cells, including T cells and non&#45;T cells using Seurat">
<path fill="none" stroke="black" d="M149,-396C149,-396 12,-396 12,-396 6,-396 0,-390 0,-384 0,-384 0,-372 0,-372 0,-366 6,-360 12,-360 12,-360 149,-360 149,-360 155,-360 161,-366 161,-372 161,-372 161,-384 161,-384 161,-390 155,-396 149,-396"/>
<text text-anchor="middle" x="80.5" y="-374.9" font-family="Helvetica,sans-Serif" font-size="12.00">SeuratClusteringOfAllCells</text>
</a>
</g>
</g>
<!-- SeuratPreparing&#45;&gt;SeuratClusteringOfAllCells -->
<g id="edge14" class="edge">
<title>SeuratPreparing&#45;&gt;SeuratClusteringOfAllCells</title>
<path fill="none" stroke="black" d="M109.86,-431.7C105.09,-423.14 99.25,-412.66 94.04,-403.3"/>
<polygon fill="black" stroke="black" points="96.37,-401.73 90.03,-396.1 91.48,-404.46 96.37,-401.73"/>
</g>
<!-- TCellSelection -->
<g id="node7" class="node">
<title>TCellSelection</title>
<path fill="none" stroke="black" d="M149.5,-324C149.5,-324 77.5,-324 77.5,-324 71.5,-324 65.5,-318 65.5,-312 65.5,-312 65.5,-300 65.5,-300 65.5,-294 71.5,-288 77.5,-288 77.5,-288 149.5,-288 149.5,-288 155.5,-288 161.5,-294 161.5,-300 161.5,-300 161.5,-312 161.5,-312 161.5,-318 155.5,-324 149.5,-324"/>
<text text-anchor="middle" x="113.5" y="-302.9" font-family="Helvetica,sans-Serif" font-size="12.00">TCellSelection</text>
</g>
<!-- SeuratClusteringOfAllCells&#45;&gt;TCellSelection -->
<g id="edge11" class="edge">
<title>SeuratClusteringOfAllCells&#45;&gt;TCellSelection</title>
<path fill="none" stroke="black" d="M88.66,-359.7C92.65,-351.22 97.54,-340.86 101.91,-331.58"/>
<polygon fill="black" stroke="black" points="104.56,-332.53 105.44,-324.1 99.49,-330.15 104.56,-332.53"/>
</g>
<!-- SeuratSubClustering -->
<g id="node3" class="node">
<title>SeuratSubClustering</title>
<g id="a_node3"><a xlink:title="Sub&#45;cluster the selected T cells.">
<path fill="none" stroke="black" d="M165.5,-180C165.5,-180 61.5,-180 61.5,-180 55.5,-180 49.5,-174 49.5,-168 49.5,-168 49.5,-156 49.5,-156 49.5,-150 55.5,-144 61.5,-144 61.5,-144 165.5,-144 165.5,-144 171.5,-144 177.5,-150 177.5,-156 177.5,-156 177.5,-168 177.5,-168 177.5,-174 171.5,-180 165.5,-180"/>
<text text-anchor="middle" x="113.5" y="-158.9" font-family="Helvetica,sans-Serif" font-size="12.00">SeuratSubClustering</text>
</a>
</g>
</g>
<!-- ClusterMarkers -->
<g id="node5" class="node">
<title>ClusterMarkers</title>
<g id="a_node5"><a xlink:title="Markers for clusters of all or selected T cells.">
<polygon fill="none" stroke="black" points="121.5,-108 23.5,-108 23.5,-72 121.5,-72 121.5,-108"/>
<text text-anchor="middle" x="72.5" y="-86.9" font-family="Helvetica,sans-Serif" font-size="12.00">ClusterMarkers</text>
</a>
</g>
</g>
<!-- SeuratSubClustering&#45;&gt;ClusterMarkers -->
<g id="edge5" class="edge">
<title>SeuratSubClustering&#45;&gt;ClusterMarkers</title>
<path fill="none" stroke="black" d="M103.37,-143.7C98.3,-135.05 92.09,-124.45 86.57,-115.03"/>
<polygon fill="black" stroke="black" points="88.98,-113.59 82.52,-108.1 84.15,-116.42 88.98,-113.59"/>
</g>
<!-- IntegratingTCR -->
<g id="node8" class="node">
<title>IntegratingTCR</title>
<g id="a_node8"><a xlink:title="Attach TCR clone information as meta columns to Seurat object">
<path fill="none" stroke="black" d="M225.5,-108C225.5,-108 151.5,-108 151.5,-108 145.5,-108 139.5,-102 139.5,-96 139.5,-96 139.5,-84 139.5,-84 139.5,-78 145.5,-72 151.5,-72 151.5,-72 225.5,-72 225.5,-72 231.5,-72 237.5,-78 237.5,-84 237.5,-84 237.5,-96 237.5,-96 237.5,-102 231.5,-108 225.5,-108"/>
<text text-anchor="middle" x="188.5" y="-86.9" font-family="Helvetica,sans-Serif" font-size="12.00">IntegratingTCR</text>
</a>
</g>
</g>
<!-- SeuratSubClustering&#45;&gt;IntegratingTCR -->
<g id="edge1" class="edge">
<title>SeuratSubClustering&#45;&gt;IntegratingTCR</title>
<path fill="none" stroke="black" d="M132.04,-143.7C141.76,-134.63 153.78,-123.4 164.23,-113.65"/>
<polygon fill="black" stroke="black" points="166.24,-115.61 170.17,-108.1 162.41,-111.52 166.24,-115.61"/>
</g>
<!-- Immunarch -->
<g id="node4" class="node">
<title>Immunarch</title>
<g id="a_node4"><a xlink:title="Exploration of Single&#45;cell and Bulk T&#45;cell/Antibody Immune Repertoires">
<polygon fill="none" stroke="black" points="332.5,-36 256.5,-36 256.5,0 332.5,0 332.5,-36"/>
<text text-anchor="middle" x="294.5" y="-14.9" font-family="Helvetica,sans-Serif" font-size="12.00">Immunarch</text>
</a>
</g>
</g>
<!-- SeuratClustering -->
<g id="node6" class="node">
<title>SeuratClustering</title>
<g id="a_node6"><a xlink:title="Cluster all T cells or selected T cells selected by `TCellSelection`.">
<path fill="none" stroke="black" d="M155,-252C155,-252 72,-252 72,-252 66,-252 60,-246 60,-240 60,-240 60,-228 60,-228 60,-222 66,-216 72,-216 72,-216 155,-216 155,-216 161,-216 167,-222 167,-228 167,-228 167,-240 167,-240 167,-246 161,-252 155,-252"/>
<text text-anchor="middle" x="113.5" y="-230.9" font-family="Helvetica,sans-Serif" font-size="12.00">SeuratClustering</text>
</a>
</g>
</g>
<!-- SeuratClustering&#45;&gt;SeuratSubClustering -->
<g id="edge2" class="edge">
<title>SeuratClustering&#45;&gt;SeuratSubClustering</title>
<path fill="none" stroke="black" d="M113.5,-215.7C113.5,-207.39 113.5,-197.28 113.5,-188.14"/>
<polygon fill="black" stroke="black" points="116.3,-188.1 113.5,-180.1 110.7,-188.1 116.3,-188.1"/>
</g>
<!-- TCellSelection&#45;&gt;SeuratClustering -->
<g id="edge9" class="edge">
<title>TCellSelection&#45;&gt;SeuratClustering</title>
<path fill="none" stroke="black" d="M113.5,-287.7C113.5,-279.39 113.5,-269.28 113.5,-260.14"/>
<polygon fill="black" stroke="black" points="116.3,-260.1 113.5,-252.1 110.7,-260.1 116.3,-260.1"/>
</g>
<!-- IntegratingTCR&#45;&gt;Immunarch -->
<g id="edge12" class="edge">
<title>IntegratingTCR&#45;&gt;Immunarch</title>
<path fill="none" stroke="black" d="M214.43,-71.88C228.68,-62.47 246.49,-50.71 261.69,-40.67"/>
<polygon fill="black" stroke="black" points="263.34,-42.93 268.47,-36.19 260.25,-38.26 263.34,-42.93"/>
</g>
<!-- RadarPlots -->
<g id="node10" class="node">
<title>RadarPlots</title>
<g id="a_node10"><a xlink:title="Radar plots for cell proportion in different clusters.">
<polygon fill="none" stroke="black" points="103,-36 26,-36 26,0 103,0 103,-36"/>
<text text-anchor="middle" x="64.5" y="-14.9" font-family="Helvetica,sans-Serif" font-size="12.00">RadarPlots</text>
</a>
</g>
</g>
<!-- IntegratingTCR&#45;&gt;RadarPlots -->
<g id="edge8" class="edge">
<title>IntegratingTCR&#45;&gt;RadarPlots</title>
<path fill="none" stroke="black" d="M158.17,-71.88C141.2,-62.3 119.92,-50.28 101.92,-40.13"/>
<polygon fill="black" stroke="black" points="103.29,-37.68 94.95,-36.19 100.54,-42.56 103.29,-37.68"/>
</g>
<!-- SeuratClusterStats -->
<g id="node11" class="node">
<title>SeuratClusterStats</title>
<polygon fill="none" stroke="black" points="238,-36 121,-36 121,0 238,0 238,-36"/>
<text text-anchor="middle" x="179.5" y="-14.9" font-family="Helvetica,sans-Serif" font-size="12.00">SeuratClusterStats</text>
</g>
<!-- IntegratingTCR&#45;&gt;SeuratClusterStats -->
<g id="edge6" class="edge">
<title>IntegratingTCR&#45;&gt;SeuratClusterStats</title>
<path fill="none" stroke="black" d="M186.28,-71.7C185.21,-63.39 183.91,-53.28 182.73,-44.14"/>
<polygon fill="black" stroke="black" points="185.5,-43.68 181.7,-36.1 179.94,-44.4 185.5,-43.68"/>
</g>
<!-- ImmunarchLoading -->
<g id="node9" class="node">
<title>ImmunarchLoading</title>
<g id="a_node9"><a xlink:title="Immuarch &#45; Loading data">
<path fill="none" stroke="black" d="M286,-396C286,-396 191,-396 191,-396 185,-396 179,-390 179,-384 179,-384 179,-372 179,-372 179,-366 185,-360 191,-360 191,-360 286,-360 286,-360 292,-360 298,-366 298,-372 298,-372 298,-384 298,-384 298,-390 292,-396 286,-396"/>
<text text-anchor="middle" x="238.5" y="-374.9" font-family="Helvetica,sans-Serif" font-size="12.00">ImmunarchLoading</text>
</a>
</g>
</g>
<!-- ImmunarchLoading&#45;&gt;Immunarch -->
<g id="edge10" class="edge">
<title>ImmunarchLoading&#45;&gt;Immunarch</title>
<path fill="none" stroke="black" d="M248.03,-359.66C261.5,-333.47 284.5,-281.9 284.5,-235 284.5,-235 284.5,-235 284.5,-161 284.5,-120.01 288.7,-72.54 291.65,-44.18"/>
<polygon fill="black" stroke="black" points="294.46,-44.27 292.52,-36.02 288.89,-43.68 294.46,-44.27"/>
</g>
<!-- ImmunarchLoading&#45;&gt;TCellSelection -->
<g id="edge3" class="edge">
<title>ImmunarchLoading&#45;&gt;TCellSelection</title>
<path fill="none" stroke="black" d="M207.92,-359.88C190.82,-350.3 169.36,-338.28 151.23,-328.13"/>
<polygon fill="black" stroke="black" points="152.54,-325.66 144.2,-324.19 149.81,-330.54 152.54,-325.66"/>
</g>
<!-- ImmunarchLoading&#45;&gt;IntegratingTCR -->
<g id="edge4" class="edge">
<title>ImmunarchLoading&#45;&gt;IntegratingTCR</title>
<path fill="none" stroke="black" d="M235.52,-359.97C227.08,-311.7 202.98,-173.8 192.95,-116.47"/>
<polygon fill="black" stroke="black" points="195.66,-115.7 191.53,-108.31 190.15,-116.67 195.66,-115.7"/>
</g>
<!-- SampleInfo -->
<g id="node12" class="node">
<title>SampleInfo</title>
<g id="a_node12"><a xlink:title="List sample information and perform statistics">
<polygon fill="none" stroke="black" points="159.5,-540 92.43,-522 159.5,-504 226.57,-522 159.5,-540"/>
<text text-anchor="middle" x="159.5" y="-518.9" font-family="Helvetica,sans-Serif" font-size="12.00">SampleInfo</text>
</a>
</g>
</g>
<!-- SampleInfo&#45;&gt;SeuratPreparing -->
<g id="edge7" class="edge">
<title>SampleInfo&#45;&gt;SeuratPreparing</title>
<path fill="none" stroke="black" d="M151.02,-506.15C145.89,-497.18 139.22,-485.52 133.35,-475.23"/>
<polygon fill="black" stroke="black" points="135.64,-473.6 129.24,-468.04 130.78,-476.38 135.64,-473.6"/>
</g>
<!-- SampleInfo&#45;&gt;ImmunarchLoading -->
<g id="edge13" class="edge">
<title>SampleInfo&#45;&gt;ImmunarchLoading</title>
<path fill="none" stroke="black" d="M167.81,-506.07C181.39,-481.65 208.49,-432.94 224.91,-403.43"/>
<polygon fill="black" stroke="black" points="227.4,-404.72 228.84,-396.37 222.5,-402 227.4,-404.72"/>
</g>
</g>
</svg>
