<?xml version="1.0" encoding="UTF-8" standalone="no"?>
<!DOCTYPE svg PUBLIC "-//W3C//DTD SVG 1.1//EN"
 "http://www.w3.org/Graphics/SVG/1.1/DTD/svg11.dtd">
<!-- Generated by graphviz version 3.0.0 (20220315.2325)
 -->
<!-- Title: ImmunopipeCD45 Pages: 1 -->
<svg width="242pt" height="298pt"
 viewBox="0.00 0.00 241.50 298.00" xmlns="http://www.w3.org/2000/svg" xmlns:xlink="http://www.w3.org/1999/xlink">
<g id="graph0" class="graph" transform="scale(1 1) rotate(0) translate(4 294)">
<title>ImmunopipeCD45</title>
<polygon fill="white" stroke="transparent" points="-4,4 -4,-294 237.5,-294 237.5,4 -4,4"/>
<text text-anchor="middle" x="116.75" y="-274.8" font-family="Helvetica,sans-Serif" font-size="14.00">ImmunopipeCD45</text>
<text text-anchor="middle" x="116.75" y="-259.8" font-family="Helvetica,sans-Serif" font-size="14.00"> </text>
<!-- ClusterMarkers -->
<g id="node1" class="node">
<title>ClusterMarkers</title>
<g id="a_node1"><a xlink:title="Markers for clusters of all or selected T cells.">
<polygon fill="none" stroke="black" points="98,-36 0,-36 0,0 98,0 98,-36"/>
<text text-anchor="middle" x="49" y="-14.9" font-family="Helvetica,sans-Serif" font-size="12.00">ClusterMarkers</text>
</a>
</g>
</g>
<!-- SeuratPreparing -->
<g id="node2" class="node">
<title>SeuratPreparing</title>
<g id="a_node2"><a xlink:title="Load, prepare and apply QC to data, using `Seurat`">
<path fill="none" stroke="black" d="M152,-180C152,-180 72,-180 72,-180 66,-180 60,-174 60,-168 60,-168 60,-156 60,-156 60,-150 66,-144 72,-144 72,-144 152,-144 152,-144 158,-144 164,-150 164,-156 164,-156 164,-168 164,-168 164,-174 158,-180 152,-180"/>
<text text-anchor="middle" x="112" y="-158.9" font-family="Helvetica,sans-Serif" font-size="12.00">SeuratPreparing</text>
</a>
</g>
</g>
<!-- SeuratClustering -->
<g id="node4" class="node">
<title>SeuratClustering</title>
<g id="a_node4"><a xlink:title="Cluster all T cells or selected T cells selected by `TCellSelection`.">
<path fill="none" stroke="black" d="M153.5,-108C153.5,-108 70.5,-108 70.5,-108 64.5,-108 58.5,-102 58.5,-96 58.5,-96 58.5,-84 58.5,-84 58.5,-78 64.5,-72 70.5,-72 70.5,-72 153.5,-72 153.5,-72 159.5,-72 165.5,-78 165.5,-84 165.5,-84 165.5,-96 165.5,-96 165.5,-102 159.5,-108 153.5,-108"/>
<text text-anchor="middle" x="112" y="-86.9" font-family="Helvetica,sans-Serif" font-size="12.00">SeuratClustering</text>
</a>
</g>
</g>
<!-- SeuratPreparing&#45;&gt;SeuratClustering -->
<g id="edge3" class="edge">
<title>SeuratPreparing&#45;&gt;SeuratClustering</title>
<path fill="none" stroke="black" d="M112,-143.7C112,-135.39 112,-125.28 112,-116.14"/>
<polygon fill="black" stroke="black" points="114.8,-116.1 112,-108.1 109.2,-116.1 114.8,-116.1"/>
</g>
<!-- SeuratClusterStats -->
<g id="node3" class="node">
<title>SeuratClusterStats</title>
<polygon fill="none" stroke="black" points="233.5,-36 116.5,-36 116.5,0 233.5,0 233.5,-36"/>
<text text-anchor="middle" x="175" y="-14.9" font-family="Helvetica,sans-Serif" font-size="12.00">SeuratClusterStats</text>
</g>
<!-- SeuratClustering&#45;&gt;ClusterMarkers -->
<g id="edge4" class="edge">
<title>SeuratClustering&#45;&gt;ClusterMarkers</title>
<path fill="none" stroke="black" d="M96.43,-71.7C88.42,-62.8 78.54,-51.82 69.88,-42.2"/>
<polygon fill="black" stroke="black" points="71.83,-40.18 64.39,-36.1 67.66,-43.92 71.83,-40.18"/>
</g>
<!-- SeuratClustering&#45;&gt;SeuratClusterStats -->
<g id="edge1" class="edge">
<title>SeuratClustering&#45;&gt;SeuratClusterStats</title>
<path fill="none" stroke="black" d="M127.57,-71.7C135.58,-62.8 145.46,-51.82 154.12,-42.2"/>
<polygon fill="black" stroke="black" points="156.34,-43.92 159.61,-36.1 152.17,-40.18 156.34,-43.92"/>
</g>
<!-- SampleInfo -->
<g id="node5" class="node">
<title>SampleInfo</title>
<g id="a_node5"><a xlink:title="List sample information and perform statistics">
<polygon fill="none" stroke="black" points="112,-252 44.93,-234 112,-216 179.07,-234 112,-252"/>
<text text-anchor="middle" x="112" y="-230.9" font-family="Helvetica,sans-Serif" font-size="12.00">SampleInfo</text>
</a>
</g>
</g>
<!-- SampleInfo&#45;&gt;SeuratPreparing -->
<g id="edge2" class="edge">
<title>SampleInfo&#45;&gt;SeuratPreparing</title>
<path fill="none" stroke="black" d="M112,-215.7C112,-207.39 112,-197.28 112,-188.14"/>
<polygon fill="black" stroke="black" points="114.8,-188.1 112,-180.1 109.2,-188.1 114.8,-188.1"/>
</g>
</g>
</svg>
