<?xml version="1.0" encoding="UTF-8" standalone="no"?>
<!DOCTYPE svg PUBLIC "-//W3C//DTD SVG 1.1//EN"
 "http://www.w3.org/Graphics/SVG/1.1/DTD/svg11.dtd">
<!-- Generated by graphviz version 12.0.0 (20240803.0821)
 -->
<!-- Title: ImmunopipeCD45 Pages: 1 -->
<svg width="359pt" height="303pt"
 viewBox="0.00 0.00 359.25 302.50" xmlns="http://www.w3.org/2000/svg" xmlns:xlink="http://www.w3.org/1999/xlink">
<g id="graph0" class="graph" transform="scale(1 1) rotate(0) translate(4 298.5)">
<title>ImmunopipeCD45</title>
<polygon fill="white" stroke="none" points="-4,4 -4,-298.5 355.25,-298.5 355.25,4 -4,4"/>
<text text-anchor="middle" x="175.62" y="-277.2" font-family="Helvetica,sans-Serif" font-size="14.00">ImmunopipeCD45</text>
<text text-anchor="middle" x="175.62" y="-259.95" font-family="Helvetica,sans-Serif" font-size="14.00"> </text>
<!-- SeuratClustering -->
<g id="node1" class="node">
<title>SeuratClustering</title>
<g id="a_node1"><a xlink:title="Cluster all T cells or selected T cells selected by `TCellSelection`.">
<path fill="none" stroke="black" d="M211.25,-108C211.25,-108 119.5,-108 119.5,-108 113.5,-108 107.5,-102 107.5,-96 107.5,-96 107.5,-84 107.5,-84 107.5,-78 113.5,-72 119.5,-72 119.5,-72 211.25,-72 211.25,-72 217.25,-72 223.25,-78 223.25,-84 223.25,-84 223.25,-96 223.25,-96 223.25,-102 217.25,-108 211.25,-108"/>
<text text-anchor="middle" x="165.38" y="-85.72" font-family="Helvetica,sans-Serif" font-size="12.00">SeuratClustering</text>
</a>
</g>
</g>
<!-- ClusterMarkers -->
<g id="node2" class="node">
<title>ClusterMarkers</title>
<g id="a_node2"><a xlink:title="Markers for clusters of all or selected T cells.">
<polygon fill="none" stroke="black" points="106.75,-36 0,-36 0,0 106.75,0 106.75,-36"/>
<text text-anchor="middle" x="53.38" y="-13.72" font-family="Helvetica,sans-Serif" font-size="12.00">ClusterMarkers</text>
</a>
</g>
</g>
<!-- SeuratClustering&#45;&gt;ClusterMarkers -->
<g id="edge4" class="edge">
<title>SeuratClustering&#45;&gt;ClusterMarkers</title>
<path fill="none" stroke="black" d="M137.4,-71.52C122.73,-62.34 104.59,-51.01 88.93,-41.22"/>
<polygon fill="black" stroke="black" points="90.54,-38.93 82.28,-37.06 87.58,-43.68 90.54,-38.93"/>
</g>
<!-- RadarPlots -->
<g id="node3" class="node">
<title>RadarPlots</title>
<g id="a_node3"><a xlink:title="Radar plots for cell proportion in different clusters.">
<polygon fill="none" stroke="black" points="205.62,-36 125.12,-36 125.12,0 205.62,0 205.62,-36"/>
<text text-anchor="middle" x="165.38" y="-13.72" font-family="Helvetica,sans-Serif" font-size="12.00">RadarPlots</text>
</a>
</g>
</g>
<!-- SeuratClustering&#45;&gt;RadarPlots -->
<g id="edge5" class="edge">
<title>SeuratClustering&#45;&gt;RadarPlots</title>
<path fill="none" stroke="black" d="M165.38,-71.7C165.38,-63.81 165.38,-54.3 165.38,-45.55"/>
<polygon fill="black" stroke="black" points="168.18,-45.62 165.38,-37.62 162.58,-45.62 168.18,-45.62"/>
</g>
<!-- SeuratClusterStats -->
<g id="node5" class="node">
<title>SeuratClusterStats</title>
<polygon fill="none" stroke="black" points="351.25,-36 223.5,-36 223.5,0 351.25,0 351.25,-36"/>
<text text-anchor="middle" x="287.38" y="-13.72" font-family="Helvetica,sans-Serif" font-size="12.00">SeuratClusterStats</text>
</g>
<!-- SeuratClustering&#45;&gt;SeuratClusterStats -->
<g id="edge1" class="edge">
<title>SeuratClustering&#45;&gt;SeuratClusterStats</title>
<path fill="none" stroke="black" d="M195.85,-71.52C211.98,-62.26 231.95,-50.8 249.12,-40.95"/>
<polygon fill="black" stroke="black" points="250.43,-43.42 255.98,-37.01 247.65,-38.57 250.43,-43.42"/>
</g>
<!-- SeuratPreparing -->
<g id="node4" class="node">
<title>SeuratPreparing</title>
<g id="a_node4"><a xlink:title="Load, prepare and apply QC to data, using `Seurat`">
<path fill="none" stroke="black" d="M209.75,-180C209.75,-180 121,-180 121,-180 115,-180 109,-174 109,-168 109,-168 109,-156 109,-156 109,-150 115,-144 121,-144 121,-144 209.75,-144 209.75,-144 215.75,-144 221.75,-150 221.75,-156 221.75,-156 221.75,-168 221.75,-168 221.75,-174 215.75,-180 209.75,-180"/>
<text text-anchor="middle" x="165.38" y="-157.72" font-family="Helvetica,sans-Serif" font-size="12.00">SeuratPreparing</text>
</a>
</g>
</g>
<!-- SeuratPreparing&#45;&gt;SeuratClustering -->
<g id="edge3" class="edge">
<title>SeuratPreparing&#45;&gt;SeuratClustering</title>
<path fill="none" stroke="black" d="M165.38,-143.7C165.38,-135.81 165.38,-126.3 165.38,-117.55"/>
<polygon fill="black" stroke="black" points="168.18,-117.62 165.38,-109.62 162.58,-117.62 168.18,-117.62"/>
</g>
<!-- SampleInfo -->
<g id="node6" class="node">
<title>SampleInfo</title>
<g id="a_node6"><a xlink:title="List sample information and perform statistics">
<polygon fill="none" stroke="black" points="165.38,-252 89.59,-234 165.37,-216 241.16,-234 165.38,-252"/>
<text text-anchor="middle" x="165.38" y="-229.72" font-family="Helvetica,sans-Serif" font-size="12.00">SampleInfo</text>
</a>
</g>
</g>
<!-- SampleInfo&#45;&gt;SeuratPreparing -->
<g id="edge2" class="edge">
<title>SampleInfo&#45;&gt;SeuratPreparing</title>
<path fill="none" stroke="black" d="M165.38,-215.7C165.38,-207.81 165.38,-198.3 165.38,-189.55"/>
<polygon fill="black" stroke="black" points="168.18,-189.62 165.38,-181.62 162.58,-189.62 168.18,-189.62"/>
</g>
</g>
</svg>
