<?xml version="1.0" encoding="UTF-8" standalone="no"?>
<!DOCTYPE svg PUBLIC "-//W3C//DTD SVG 1.1//EN"
 "http://www.w3.org/Graphics/SVG/1.1/DTD/svg11.dtd">
<!-- Generated by graphviz version 7.0.5 (20221231.0122)
 -->
<!-- Title: ImmunopipeCD45 Pages: 1 -->
<svg width="361pt" height="298pt"
 viewBox="0.00 0.00 360.50 298.00" xmlns="http://www.w3.org/2000/svg" xmlns:xlink="http://www.w3.org/1999/xlink">
<g id="graph0" class="graph" transform="scale(1 1) rotate(0) translate(4 294)">
<title>ImmunopipeCD45</title>
<polygon fill="white" stroke="none" points="-4,4 -4,-294 356.5,-294 356.5,4 -4,4"/>
<text text-anchor="middle" x="176.25" y="-274.8" font-family="Helvetica,sans-Serif" font-size="14.00">ImmunopipeCD45</text>
<text text-anchor="middle" x="176.25" y="-259.8" font-family="Helvetica,sans-Serif" font-size="14.00"> </text>
<!-- SeuratClusterStats -->
<g id="node1" class="node">
<title>SeuratClusterStats</title>
<polygon fill="none" stroke="black" points="128,-36 0,-36 0,0 128,0 128,-36"/>
<text text-anchor="middle" x="64" y="-14.9" font-family="Helvetica,sans-Serif" font-size="12.00">SeuratClusterStats</text>
</g>
<!-- SampleInfo -->
<g id="node2" class="node">
<title>SampleInfo</title>
<g id="a_node2"><a xlink:title="List sample information and perform statistics">
<polygon fill="none" stroke="black" points="200,-252 126,-234 200,-216 274,-234 200,-252"/>
<text text-anchor="middle" x="200" y="-230.9" font-family="Helvetica,sans-Serif" font-size="12.00">SampleInfo</text>
</a>
</g>
</g>
<!-- SeuratPreparing -->
<g id="node5" class="node">
<title>SeuratPreparing</title>
<g id="a_node5"><a xlink:title="Load, prepare and apply QC to data, using `Seurat`">
<path fill="none" stroke="black" d="M244.5,-180C244.5,-180 155.5,-180 155.5,-180 149.5,-180 143.5,-174 143.5,-168 143.5,-168 143.5,-156 143.5,-156 143.5,-150 149.5,-144 155.5,-144 155.5,-144 244.5,-144 244.5,-144 250.5,-144 256.5,-150 256.5,-156 256.5,-156 256.5,-168 256.5,-168 256.5,-174 250.5,-180 244.5,-180"/>
<text text-anchor="middle" x="200" y="-158.9" font-family="Helvetica,sans-Serif" font-size="12.00">SeuratPreparing</text>
</a>
</g>
</g>
<!-- SampleInfo&#45;&gt;SeuratPreparing -->
<g id="edge1" class="edge">
<title>SampleInfo&#45;&gt;SeuratPreparing</title>
<path fill="none" stroke="black" d="M200,-215.7C200,-207.81 200,-198.3 200,-189.55"/>
<polygon fill="black" stroke="black" points="202.8,-189.62 200,-181.62 197.2,-189.62 202.8,-189.62"/>
</g>
<!-- ClusterMarkers -->
<g id="node3" class="node">
<title>ClusterMarkers</title>
<g id="a_node3"><a xlink:title="Markers for clusters of all or selected T cells.">
<polygon fill="none" stroke="black" points="253.5,-36 146.5,-36 146.5,0 253.5,0 253.5,-36"/>
<text text-anchor="middle" x="200" y="-14.9" font-family="Helvetica,sans-Serif" font-size="12.00">ClusterMarkers</text>
</a>
</g>
</g>
<!-- SeuratClustering -->
<g id="node4" class="node">
<title>SeuratClustering</title>
<g id="a_node4"><a xlink:title="Cluster all T cells or selected T cells selected by `TCellSelection`.">
<path fill="none" stroke="black" d="M246,-108C246,-108 154,-108 154,-108 148,-108 142,-102 142,-96 142,-96 142,-84 142,-84 142,-78 148,-72 154,-72 154,-72 246,-72 246,-72 252,-72 258,-78 258,-84 258,-84 258,-96 258,-96 258,-102 252,-108 246,-108"/>
<text text-anchor="middle" x="200" y="-86.9" font-family="Helvetica,sans-Serif" font-size="12.00">SeuratClustering</text>
</a>
</g>
</g>
<!-- SeuratClustering&#45;&gt;SeuratClusterStats -->
<g id="edge5" class="edge">
<title>SeuratClustering&#45;&gt;SeuratClusterStats</title>
<path fill="none" stroke="black" d="M166.03,-71.52C147.8,-62.13 125.18,-50.49 105.86,-40.55"/>
<polygon fill="black" stroke="black" points="107.28,-38.12 98.88,-36.95 104.71,-43.1 107.28,-38.12"/>
</g>
<!-- SeuratClustering&#45;&gt;ClusterMarkers -->
<g id="edge3" class="edge">
<title>SeuratClustering&#45;&gt;ClusterMarkers</title>
<path fill="none" stroke="black" d="M200,-71.7C200,-63.81 200,-54.3 200,-45.55"/>
<polygon fill="black" stroke="black" points="202.8,-45.62 200,-37.62 197.2,-45.62 202.8,-45.62"/>
</g>
<!-- RadarPlots -->
<g id="node6" class="node">
<title>RadarPlots</title>
<g id="a_node6"><a xlink:title="Radar plots for cell proportion in different clusters.">
<polygon fill="none" stroke="black" points="352.5,-36 271.5,-36 271.5,0 352.5,0 352.5,-36"/>
<text text-anchor="middle" x="312" y="-14.9" font-family="Helvetica,sans-Serif" font-size="12.00">RadarPlots</text>
</a>
</g>
</g>
<!-- SeuratClustering&#45;&gt;RadarPlots -->
<g id="edge4" class="edge">
<title>SeuratClustering&#45;&gt;RadarPlots</title>
<path fill="none" stroke="black" d="M227.97,-71.52C242.65,-62.34 260.79,-51.01 276.45,-41.22"/>
<polygon fill="black" stroke="black" points="277.8,-43.68 283.1,-37.06 274.83,-38.93 277.8,-43.68"/>
</g>
<!-- SeuratPreparing&#45;&gt;SeuratClustering -->
<g id="edge2" class="edge">
<title>SeuratPreparing&#45;&gt;SeuratClustering</title>
<path fill="none" stroke="black" d="M200,-143.7C200,-135.81 200,-126.3 200,-117.55"/>
<polygon fill="black" stroke="black" points="202.8,-117.62 200,-109.62 197.2,-117.62 202.8,-117.62"/>
</g>
</g>
</svg>
