<?xml version="1.0" encoding="UTF-8" standalone="no"?>
<!DOCTYPE svg PUBLIC "-//W3C//DTD SVG 1.1//EN"
 "http://www.w3.org/Graphics/SVG/1.1/DTD/svg11.dtd">
<!-- Generated by graphviz version 3.0.0 (20220315.2325)
 -->
<!-- Title: ImmunopipeCD45 Pages: 1 -->
<svg width="337pt" height="298pt"
 viewBox="0.00 0.00 336.50 298.00" xmlns="http://www.w3.org/2000/svg" xmlns:xlink="http://www.w3.org/1999/xlink">
<g id="graph0" class="graph" transform="scale(1 1) rotate(0) translate(4 294)">
<title>ImmunopipeCD45</title>
<polygon fill="white" stroke="transparent" points="-4,4 -4,-294 332.5,-294 332.5,4 -4,4"/>
<text text-anchor="middle" x="164.25" y="-274.8" font-family="Helvetica,sans-Serif" font-size="14.00">ImmunopipeCD45</text>
<text text-anchor="middle" x="164.25" y="-259.8" font-family="Helvetica,sans-Serif" font-size="14.00"> </text>
<!-- ClusterMarkers -->
<g id="node1" class="node">
<title>ClusterMarkers</title>
<g id="a_node1"><a xlink:title="Markers for clusters of all or selected T cells.">
<polygon fill="none" stroke="black" points="98,-36 0,-36 0,0 98,0 98,-36"/>
<text text-anchor="middle" x="49" y="-14.9" font-family="Helvetica,sans-Serif" font-size="12.00">ClusterMarkers</text>
</a>
</g>
</g>
<!-- RadarPlots -->
<g id="node2" class="node">
<title>RadarPlots</title>
<g id="a_node2"><a xlink:title="Radar plots for cell proportion in different clusters.">
<polygon fill="none" stroke="black" points="193.5,-36 116.5,-36 116.5,0 193.5,0 193.5,-36"/>
<text text-anchor="middle" x="155" y="-14.9" font-family="Helvetica,sans-Serif" font-size="12.00">RadarPlots</text>
</a>
</g>
</g>
<!-- SeuratClusterStats -->
<g id="node3" class="node">
<title>SeuratClusterStats</title>
<polygon fill="none" stroke="black" points="328.5,-36 211.5,-36 211.5,0 328.5,0 328.5,-36"/>
<text text-anchor="middle" x="270" y="-14.9" font-family="Helvetica,sans-Serif" font-size="12.00">SeuratClusterStats</text>
</g>
<!-- SeuratClustering -->
<g id="node4" class="node">
<title>SeuratClustering</title>
<g id="a_node4"><a xlink:title="Cluster all T cells or selected T cells selected by `TCellSelection`.">
<path fill="none" stroke="black" d="M196.5,-108C196.5,-108 113.5,-108 113.5,-108 107.5,-108 101.5,-102 101.5,-96 101.5,-96 101.5,-84 101.5,-84 101.5,-78 107.5,-72 113.5,-72 113.5,-72 196.5,-72 196.5,-72 202.5,-72 208.5,-78 208.5,-84 208.5,-84 208.5,-96 208.5,-96 208.5,-102 202.5,-108 196.5,-108"/>
<text text-anchor="middle" x="155" y="-86.9" font-family="Helvetica,sans-Serif" font-size="12.00">SeuratClustering</text>
</a>
</g>
</g>
<!-- SeuratClustering&#45;&gt;ClusterMarkers -->
<g id="edge3" class="edge">
<title>SeuratClustering&#45;&gt;ClusterMarkers</title>
<path fill="none" stroke="black" d="M129.07,-71.88C114.82,-62.47 97.01,-50.71 81.81,-40.67"/>
<polygon fill="black" stroke="black" points="83.25,-38.26 75.03,-36.19 80.16,-42.93 83.25,-38.26"/>
</g>
<!-- SeuratClustering&#45;&gt;RadarPlots -->
<g id="edge5" class="edge">
<title>SeuratClustering&#45;&gt;RadarPlots</title>
<path fill="none" stroke="black" d="M155,-71.7C155,-63.39 155,-53.28 155,-44.14"/>
<polygon fill="black" stroke="black" points="157.8,-44.1 155,-36.1 152.2,-44.1 157.8,-44.1"/>
</g>
<!-- SeuratClustering&#45;&gt;SeuratClusterStats -->
<g id="edge1" class="edge">
<title>SeuratClustering&#45;&gt;SeuratClusterStats</title>
<path fill="none" stroke="black" d="M183.13,-71.88C198.73,-62.38 218.26,-50.5 234.85,-40.4"/>
<polygon fill="black" stroke="black" points="236.38,-42.74 241.76,-36.19 233.47,-37.96 236.38,-42.74"/>
</g>
<!-- SampleInfo -->
<g id="node5" class="node">
<title>SampleInfo</title>
<g id="a_node5"><a xlink:title="List sample information and perform statistics">
<polygon fill="none" stroke="black" points="155,-252 87.93,-234 155,-216 222.07,-234 155,-252"/>
<text text-anchor="middle" x="155" y="-230.9" font-family="Helvetica,sans-Serif" font-size="12.00">SampleInfo</text>
</a>
</g>
</g>
<!-- SeuratPreparing -->
<g id="node6" class="node">
<title>SeuratPreparing</title>
<g id="a_node6"><a xlink:title="Load, prepare and apply QC to data, using `Seurat`">
<path fill="none" stroke="black" d="M195,-180C195,-180 115,-180 115,-180 109,-180 103,-174 103,-168 103,-168 103,-156 103,-156 103,-150 109,-144 115,-144 115,-144 195,-144 195,-144 201,-144 207,-150 207,-156 207,-156 207,-168 207,-168 207,-174 201,-180 195,-180"/>
<text text-anchor="middle" x="155" y="-158.9" font-family="Helvetica,sans-Serif" font-size="12.00">SeuratPreparing</text>
</a>
</g>
</g>
<!-- SampleInfo&#45;&gt;SeuratPreparing -->
<g id="edge2" class="edge">
<title>SampleInfo&#45;&gt;SeuratPreparing</title>
<path fill="none" stroke="black" d="M155,-215.7C155,-207.39 155,-197.28 155,-188.14"/>
<polygon fill="black" stroke="black" points="157.8,-188.1 155,-180.1 152.2,-188.1 157.8,-188.1"/>
</g>
<!-- SeuratPreparing&#45;&gt;SeuratClustering -->
<g id="edge4" class="edge">
<title>SeuratPreparing&#45;&gt;SeuratClustering</title>
<path fill="none" stroke="black" d="M155,-143.7C155,-135.39 155,-125.28 155,-116.14"/>
<polygon fill="black" stroke="black" points="157.8,-116.1 155,-108.1 152.2,-116.1 157.8,-116.1"/>
</g>
</g>
</svg>
