<?xml version="1.0" encoding="UTF-8" standalone="no"?>
<!DOCTYPE svg PUBLIC "-//W3C//DTD SVG 1.1//EN"
 "http://www.w3.org/Graphics/SVG/1.1/DTD/svg11.dtd">
<!-- Generated by graphviz version 3.0.0 (20220315.2325)
 -->
<!-- Title: ImmunopipeCD45 Pages: 1 -->
<svg width="337pt" height="298pt"
 viewBox="0.00 0.00 337.00 298.00" xmlns="http://www.w3.org/2000/svg" xmlns:xlink="http://www.w3.org/1999/xlink">
<g id="graph0" class="graph" transform="scale(1 1) rotate(0) translate(4 294)">
<title>ImmunopipeCD45</title>
<polygon fill="white" stroke="transparent" points="-4,4 -4,-294 333,-294 333,4 -4,4"/>
<text text-anchor="middle" x="164.5" y="-274.8" font-family="Helvetica,sans-Serif" font-size="14.00">ImmunopipeCD45</text>
<text text-anchor="middle" x="164.5" y="-259.8" font-family="Helvetica,sans-Serif" font-size="14.00"> </text>
<!-- SampleInfo -->
<g id="node1" class="node">
<title>SampleInfo</title>
<g id="a_node1"><a xlink:title="List sample information and perform statistics">
<polygon fill="none" stroke="black" points="184.5,-252 117.43,-234 184.5,-216 251.57,-234 184.5,-252"/>
<text text-anchor="middle" x="184.5" y="-230.9" font-family="Helvetica,sans-Serif" font-size="12.00">SampleInfo</text>
</a>
</g>
</g>
<!-- SeuratPreparing -->
<g id="node3" class="node">
<title>SeuratPreparing</title>
<g id="a_node3"><a xlink:title="Load, prepare and apply QC to data, using `Seurat`">
<path fill="none" stroke="black" d="M224.5,-180C224.5,-180 144.5,-180 144.5,-180 138.5,-180 132.5,-174 132.5,-168 132.5,-168 132.5,-156 132.5,-156 132.5,-150 138.5,-144 144.5,-144 144.5,-144 224.5,-144 224.5,-144 230.5,-144 236.5,-150 236.5,-156 236.5,-156 236.5,-168 236.5,-168 236.5,-174 230.5,-180 224.5,-180"/>
<text text-anchor="middle" x="184.5" y="-158.9" font-family="Helvetica,sans-Serif" font-size="12.00">SeuratPreparing</text>
</a>
</g>
</g>
<!-- SampleInfo&#45;&gt;SeuratPreparing -->
<g id="edge5" class="edge">
<title>SampleInfo&#45;&gt;SeuratPreparing</title>
<path fill="none" stroke="black" d="M184.5,-215.7C184.5,-207.39 184.5,-197.28 184.5,-188.14"/>
<polygon fill="black" stroke="black" points="187.3,-188.1 184.5,-180.1 181.7,-188.1 187.3,-188.1"/>
</g>
<!-- SeuratClusterStats -->
<g id="node2" class="node">
<title>SeuratClusterStats</title>
<polygon fill="none" stroke="black" points="117,-36 0,-36 0,0 117,0 117,-36"/>
<text text-anchor="middle" x="58.5" y="-14.9" font-family="Helvetica,sans-Serif" font-size="12.00">SeuratClusterStats</text>
</g>
<!-- SeuratClustering -->
<g id="node4" class="node">
<title>SeuratClustering</title>
<g id="a_node4"><a xlink:title="Cluster all T cells or selected T cells selected by `TCellSelection`.">
<path fill="none" stroke="black" d="M226,-108C226,-108 143,-108 143,-108 137,-108 131,-102 131,-96 131,-96 131,-84 131,-84 131,-78 137,-72 143,-72 143,-72 226,-72 226,-72 232,-72 238,-78 238,-84 238,-84 238,-96 238,-96 238,-102 232,-108 226,-108"/>
<text text-anchor="middle" x="184.5" y="-86.9" font-family="Helvetica,sans-Serif" font-size="12.00">SeuratClustering</text>
</a>
</g>
</g>
<!-- SeuratPreparing&#45;&gt;SeuratClustering -->
<g id="edge4" class="edge">
<title>SeuratPreparing&#45;&gt;SeuratClustering</title>
<path fill="none" stroke="black" d="M184.5,-143.7C184.5,-135.39 184.5,-125.28 184.5,-116.14"/>
<polygon fill="black" stroke="black" points="187.3,-116.1 184.5,-108.1 181.7,-116.1 187.3,-116.1"/>
</g>
<!-- SeuratClustering&#45;&gt;SeuratClusterStats -->
<g id="edge3" class="edge">
<title>SeuratClustering&#45;&gt;SeuratClusterStats</title>
<path fill="none" stroke="black" d="M153.68,-71.88C136.44,-62.3 114.81,-50.28 96.53,-40.13"/>
<polygon fill="black" stroke="black" points="97.79,-37.63 89.44,-36.19 95.08,-42.52 97.79,-37.63"/>
</g>
<!-- ClusterMarkers -->
<g id="node5" class="node">
<title>ClusterMarkers</title>
<g id="a_node5"><a xlink:title="Markers for clusters of all or selected T cells.">
<polygon fill="none" stroke="black" points="233.5,-36 135.5,-36 135.5,0 233.5,0 233.5,-36"/>
<text text-anchor="middle" x="184.5" y="-14.9" font-family="Helvetica,sans-Serif" font-size="12.00">ClusterMarkers</text>
</a>
</g>
</g>
<!-- SeuratClustering&#45;&gt;ClusterMarkers -->
<g id="edge1" class="edge">
<title>SeuratClustering&#45;&gt;ClusterMarkers</title>
<path fill="none" stroke="black" d="M184.5,-71.7C184.5,-63.39 184.5,-53.28 184.5,-44.14"/>
<polygon fill="black" stroke="black" points="187.3,-44.1 184.5,-36.1 181.7,-44.1 187.3,-44.1"/>
</g>
<!-- RadarPlots -->
<g id="node6" class="node">
<title>RadarPlots</title>
<g id="a_node6"><a xlink:title="Radar plots for cell proportion in different clusters.">
<polygon fill="none" stroke="black" points="329,-36 252,-36 252,0 329,0 329,-36"/>
<text text-anchor="middle" x="290.5" y="-14.9" font-family="Helvetica,sans-Serif" font-size="12.00">RadarPlots</text>
</a>
</g>
</g>
<!-- SeuratClustering&#45;&gt;RadarPlots -->
<g id="edge2" class="edge">
<title>SeuratClustering&#45;&gt;RadarPlots</title>
<path fill="none" stroke="black" d="M210.43,-71.88C224.68,-62.47 242.49,-50.71 257.69,-40.67"/>
<polygon fill="black" stroke="black" points="259.34,-42.93 264.47,-36.19 256.25,-38.26 259.34,-42.93"/>
</g>
</g>
</svg>
